<svg width="556" height="516" viewBox="0 0 556 516" fill="none" xmlns="http://www.w3.org/2000/svg" preserveAspectRatio="none">
<path fill-rule="evenodd" clip-rule="evenodd" d="M154.461 381.303C144.754 382.69 132.574 384.431 127.242 382.911C126.484 382.695 126.311 382.127 126.141 381.574C126.019 381.175 125.899 380.783 125.563 380.535C124.85 380.008 122.106 378.534 120.858 378.374C116.541 377.818 112.36 379.683 109.458 380.978C109.352 381.026 109.246 381.073 109.143 381.119C102.753 383.962 91.8234 383.686 86.0677 381.478C81.773 379.83 80.7817 376.388 79.916 373.383C79.6759 372.55 79.4456 371.75 79.1571 371.031C77.7556 367.539 69.6472 367.222 62.2976 366.934C58.6473 366.792 55.1841 366.656 52.8228 366.143C47.2994 364.942 43.3848 362.686 40.1126 360.291C37.8414 358.629 40.274 358.378 43.0766 358.089C45.4977 357.839 48.195 357.56 48.3739 356.319C48.9612 352.246 38.1441 351.134 30.5127 350.349C28.8108 350.174 27.2674 350.016 26.0442 349.844C19.1102 348.872 13.6018 342.216 15.5599 338.589C16.3215 337.179 18.3438 336.98 20.1216 336.805C22.3193 336.589 24.1434 336.409 22.7509 334.024C21.2557 331.462 13.3354 328.01 9.22045 326.497C1.275 323.577 -6.53775 316.987 8.69773 315.097C9.59168 314.986 10.4866 314.865 11.382 314.744C15.37 314.205 19.3685 313.664 23.3419 314.007C24.1 314.072 24.8253 314.158 25.537 314.242C27.5491 314.478 29.4526 314.702 31.6809 314.426C38.6919 313.556 41.2478 312.12 40.2204 308.643C39.5319 306.314 39.3794 303.255 44.8263 301.936C47.3863 301.316 51.2247 300.971 53.9278 300.807C55.5019 300.711 56.6826 301.056 57.8521 301.399C59.0924 301.761 60.3202 302.121 61.9917 301.946C67.2964 301.393 67.5754 299.243 67.8733 296.948C68.1733 294.637 68.4925 292.178 73.9822 291.053C76.2973 290.578 78.9085 290.371 81.5281 290.163C84.7399 289.909 87.9644 289.653 90.6716 288.902C93.0003 288.256 92.0821 285.655 91.2859 283.4C90.8102 282.052 90.378 280.828 90.7077 280.217C91.0396 279.603 91.2428 279.017 91.4386 278.453C92.0025 276.828 92.5045 275.382 95.844 273.928C101.634 271.408 109.691 270.803 117.629 270.208C123.035 269.802 128.386 269.4 132.927 268.4C134.359 268.085 134.895 267.381 135.432 266.675C135.957 265.986 136.483 265.295 137.849 264.964C139.451 264.576 141.373 264.39 143.216 264.213C144.04 264.133 144.849 264.055 145.605 263.961C153.576 262.973 155.951 261.27 158.232 257.147C163.126 248.302 182.488 242.645 198.937 246.809C204.155 248.13 208.759 250.257 211.76 252.768C212.082 253.037 212.288 253.327 212.479 253.597C212.964 254.279 213.356 254.831 215.308 254.589C215.639 254.548 215.97 254.507 216.3 254.466C221.862 253.779 227.239 253.115 232.394 251.581C240.294 249.23 249.851 252 256.21 254.279C259.98 255.63 262.055 257.115 264.13 258.6C265.667 259.7 267.203 260.8 269.427 261.844C273.124 263.58 280.546 262.571 286.141 261.811C287.041 261.688 287.894 261.572 288.677 261.475C290.579 261.239 292.495 261.016 294.416 260.793C299.745 260.173 305.107 259.549 310.286 258.633C312.794 258.19 315.332 257.438 317.851 256.692C320.814 255.814 323.75 254.945 326.58 254.594C332.429 253.868 336.469 255.855 337.291 258.634C337.933 260.808 337.272 261.975 336.425 263.472C336.059 264.118 335.658 264.826 335.313 265.702C332.943 271.712 344.044 272.468 353.399 273.106C356.537 273.32 359.479 273.52 361.649 273.901C367.409 274.911 366.945 277.398 362.511 279.567C355.426 283.033 367.276 284.974 374.178 286.105C375.73 286.359 377.031 286.572 377.811 286.753C378.681 286.954 379.595 287.161 380.54 287.374C393.352 290.275 411.873 294.468 403.928 303.012C402.124 304.952 402.54 306.244 403.144 308.117C403.235 308.4 403.33 308.696 403.423 309.009C403.68 309.881 403.529 310.798 403.377 311.717C403.133 313.199 402.887 314.687 404.35 316C406.091 317.562 408.804 318.845 411.528 320.134C416.507 322.49 421.523 324.863 420.715 328.988C419.319 336.115 400.651 332.795 393.459 331.44C390.348 330.854 386.222 330.696 382.024 330.536C375.754 330.297 369.323 330.051 365.871 328.362C365.553 328.207 365.18 328.007 364.766 327.785C361.978 326.291 357.353 323.813 355.485 327.349C353.825 330.494 356.333 332.57 358.876 334.673C360.079 335.669 361.291 336.671 362.071 337.796C364.61 341.459 356.057 343.29 349.421 344.711C347.748 345.069 346.197 345.401 344.976 345.73C337.259 347.808 331.682 346.738 325.981 344.21C322.801 342.8 322.929 344.989 323.931 346.079C325.505 347.792 327.949 348.376 330.63 349.016C331.761 349.286 332.934 349.566 334.102 349.945C341.445 352.329 324.324 355.881 321.404 356.243C312.714 357.321 308.422 356.88 300.374 355.541C293.709 354.433 294.723 357.567 295.394 359.643C295.455 359.83 295.513 360.009 295.562 360.175C296.969 364.937 296.019 366.659 285.893 367.915C272.639 369.559 262.096 367.271 250.752 364.603C250.494 364.543 250.227 364.477 249.952 364.408C245.749 370.734 242.006 378.842 244.137 387.224C245.917 394.225 249.679 400.817 253.673 407.816C255.76 411.472 257.91 415.239 259.873 419.233C263.143 425.885 265.512 429.582 267.542 432.752C269.065 435.129 270.397 437.209 271.777 440.015C273.239 442.988 275.101 445.714 277.133 448.69C279.577 452.266 282.266 456.203 284.804 461.366C289.453 470.823 292.416 473.417 299.106 478.447C300.697 479.643 305.792 482.428 312.09 485.871C326.985 494.015 348.609 505.837 346.5 509C308.5 517 251 516 253 501C257.082 492.145 249.931 469.362 246.405 460.474C244.777 456.37 244.456 454.559 244.034 452.175C243.541 449.398 242.911 445.843 239.913 436.973C236.727 427.548 232.749 420.515 229.068 414.006C227.334 410.941 225.665 407.992 224.177 404.964C219.527 395.506 216.973 392.027 207.422 381.177C205.847 379.388 203.767 377.472 201.328 375.497L198.442 375.855C195.474 376.224 194.068 377.354 192.868 378.318C192.004 379.013 191.247 379.621 190.091 379.798C189.936 379.822 189.78 379.846 189.624 379.869C185.574 380.49 181.414 381.128 177.801 380.596C177.51 380.553 177.224 380.511 176.943 380.469C172.97 379.878 169.808 379.407 165.253 379.972C162.737 380.121 158.852 380.676 154.461 381.303Z" fill="black" fill-opacity="0.35"/>
<path d="M283.729 434.13C282.49 449.674 277.535 462.627 265.149 475.58C239 514 261 511.849 292 514C329.159 516.579 318.899 516.363 339.466 511.849C357 508 355.366 492.859 348.136 480.761C341.943 470.399 339.466 465.218 339.466 448.379C339.466 431.54 335.75 421.177 335.75 409.519C335.75 397.862 333.273 392.68 333.273 371.956C333.273 351.231 329.557 333.096 333.273 314.962C336.989 296.828 354.329 282.579 366.715 273.512C376.624 266.259 397.268 260.128 406.351 257.969C395.203 257.537 369.193 258.746 354.329 267.036C339.466 275.326 334.924 274.808 333.273 278.694C332.447 272.649 328.814 266.259 330.796 247.606C333.273 224.291 332.034 230.767 335.75 217.814C339.466 204.861 369.193 185.432 354.329 194.499C339.466 203.566 322.125 212.633 318.41 230.767C315.437 245.275 315.52 260.991 315.932 267.036C315.107 268.331 313.207 269.367 312.217 263.15C310.978 255.378 308.501 237.244 302.308 217.814C296.769 200.436 277.536 172.478 277.536 178.955C277.536 185.432 288.683 210.042 291.16 228.177C293.142 242.684 296.94 265.309 296.115 273.512C296.115 271.785 290.516 262.758 283.729 254.083C261.434 225.586 203.219 206.156 230.468 225.586C247.408 237.665 277.536 272.217 283.729 292.942C289.922 313.667 291.16 320.143 291.16 336.982C291.16 353.821 294.287 369.999 291.16 393.976C287.444 422.473 284.967 418.587 283.729 434.13Z" fill="#534330"/>
<path d="M287.851 413C282.351 432 286.851 437 275.351 463C274.018 464.5 271.649 468.5 263.5 479C247.879 499.128 250.5 509 270 512C292.834 515.513 317.428 517.015 339.851 512C355.5 508.5 356.5 494 346.851 479C342.197 471.765 340.851 463.5 337.851 433C334.851 402.5 331.851 353.5 331.851 331.5C331.851 313.9 334.851 306.167 336.351 304.5C334.018 305 327.551 309.8 320.351 325C311.351 344 295.351 314 298.851 335C302.351 356 291.483 354.818 292.351 370C293.351 387.5 289.22 408.27 287.851 413Z" fill="#6F593F"/>
<path d="M300.208 464.777C291.668 465.347 282.743 453.847 281.624 446.93C281.624 444.184 282.152 440.234 283.883 438.007C284.419 437.319 284.177 435.677 284.437 434.802C284.802 433.569 284.746 432.191 285.152 430.974C285.578 429.697 285.415 428.677 286.005 427.424C286.6 426.158 286.866 424.438 287.227 423.066C287.779 420.969 287.838 418.683 288.472 416.655C289.35 413.845 289.138 410.715 290.109 407.94C291.305 404.524 291.164 401.072 291.608 397.517C291.894 395.23 292 393.051 292 390.715C292 385.781 292.83 380.866 292.83 375.866V360.417C292.83 356.547 292 353.261 292 349.488C292 345.095 291.05 334.773 292 330.5C292.724 327.241 290.351 319.5 300.093 322.833C301.509 323.462 302.107 326.321 303.39 327.421C304.358 328.25 307.351 328.286 310.851 331.5C313.351 332.286 312.733 327.425 314.351 326.5C315.156 326.04 315.151 325.609 315.657 324.724C316.738 322.833 315.644 320.086 316.851 319C317.834 318.115 319.88 317.709 320.615 316.607C321.629 315.086 322.817 313.808 323.958 312.365C325.054 310.979 325.747 309.22 326.886 307.891C327.671 306.976 328.423 306.496 329.031 305.401C330.036 303.591 338.648 301.581 337.351 304.5C336.696 305.973 335.351 309.5 334.351 312C332.23 320.482 331.851 325.787 331.851 334C331.851 338.584 331.844 343.439 331.844 348C331.844 352.653 332.851 358.512 332.851 363.5C332.851 371.117 333.497 377.909 333.919 385.504C334.154 389.733 335.041 394.053 335.164 398.371C335.266 401.948 336.087 407 336.087 411.652C336.087 416.304 336.657 417.365 336.824 419.63C336.986 421.81 337.239 423.931 337.239 426.178C337.239 429.792 338.9 432.965 338.9 436.5C338.9 440.367 339.351 444.634 339.351 448.5C339.351 450.19 338.397 450.957 338.046 452.534C337.65 454.32 335.579 455.242 335.579 457.099C335.579 457.59 336.858 460.277 337.47 460.627C338.566 461.253 338.07 463.844 338.07 464.985C338.07 468.21 337.436 472.458 335.072 474.646C331.16 478.268 326.402 477.495 321.791 476.076C315.579 474.164 302.096 460.295 299.351 454.5C298.465 452.631 302.368 464.633 300.208 464.777Z" fill="#866947"/>
<path d="M283.729 434.13C282.49 449.674 277.535 462.627 265.149 475.58C248.5 500.5 251 507.261 262 510C287.532 516.357 313.502 514.578 339.466 511.849C356.243 510.085 355.366 492.859 348.136 480.761C341.943 470.399 339.466 465.218 339.466 448.379C339.466 431.54 335.75 421.177 335.75 409.519C335.75 397.862 333.273 392.68 333.273 371.956C333.273 351.231 329.557 333.096 333.273 314.962C336.989 296.828 354.329 282.579 366.715 273.512C376.624 266.259 397.268 260.128 406.351 257.969C395.203 257.537 369.193 258.746 354.329 267.036C339.466 275.326 334.924 274.808 333.273 278.694C332.447 272.649 328.814 266.259 330.796 247.606C333.273 224.291 332.034 230.767 335.75 217.814C339.466 204.861 369.193 185.432 354.329 194.499C339.466 203.566 322.125 212.633 318.41 230.767C315.437 245.275 315.52 260.991 315.932 267.036C315.107 268.331 313.207 269.367 312.217 263.15C310.978 255.378 308.501 237.244 302.308 217.814C296.768 200.436 277.536 172.478 277.536 178.955C277.536 185.432 288.683 210.042 291.16 228.177C293.142 242.684 296.94 265.309 296.115 273.512C296.115 271.785 290.516 262.758 283.729 254.083C261.434 225.586 203.219 206.156 230.468 225.586C247.408 237.665 277.535 272.217 283.729 292.942C289.922 313.667 291.16 320.143 291.16 336.982C291.16 353.821 294.287 369.999 291.16 393.976C287.444 422.473 284.967 418.587 283.729 434.13Z" stroke="#503F2B" stroke-width="3"/>
<path d="M308.552 357.282C308.552 369.681 308.728 382.082 307.814 394.456C307.167 403.225 307.206 412.011 306.191 420.742" stroke="#634E35" stroke-linecap="round" stroke-linejoin="round"/>
<path d="M324.491 382.666C325.22 410.18 328.944 437.512 329.804 465.017" stroke="#634E35" stroke-linecap="round" stroke-linejoin="round"/>
<path d="M307.372 444.946C306.242 460.762 307.713 476.69 301.468 491.582" stroke="#634E35" stroke-linecap="round" stroke-linejoin="round"/>
<path d="M266.639 494.828C274.084 490.033 280.51 483.69 286.153 476.889C294.086 467.328 300.678 456.6 305.601 445.241" stroke="#634E35" stroke-linecap="round" stroke-linejoin="round"/>
<path d="M321.244 334.85C321.244 330.921 321.806 327.415 322.868 323.617C324.472 317.881 325.365 311.984 326.852 306.219" stroke="#634E35" stroke-linecap="round" stroke-linejoin="round"/>
<path d="M332.46 281.721C327.731 288.583 325.2 295.71 322.72 303.563" stroke="#634E35" stroke-linecap="round" stroke-linejoin="round"/>
<path d="M315.341 270.209C313.481 285.213 310.059 299.815 306.486 314.484" stroke="#634E35" stroke-linecap="round" stroke-linejoin="round"/>
<path d="M294.975 294.413C298.837 309.64 303.07 324.673 303.534 340.458" stroke="#634E35" stroke-linecap="round" stroke-linejoin="round"/>
<path d="M319.178 355.807C319.246 369.582 319.473 383.353 319.473 397.129" stroke="#634E35" stroke-linecap="round" stroke-linejoin="round"/>
<path d="M317.407 411.592C317.407 429.991 317.407 448.389 317.407 466.788" stroke="#634E35" stroke-linecap="round" stroke-linejoin="round"/>
<path d="M334.527 482.136C337.192 487.128 339.815 492.108 343.103 496.73C345.077 499.506 347.298 501.537 349.58 503.978" stroke="#634E35" stroke-linecap="round" stroke-linejoin="round"/>
<path d="M305.486 362.594C306.849 382.871 307.394 403.032 307.965 423.333" stroke="#634E35" stroke-linecap="round" stroke-linejoin="round"/>
<path d="M303.007 409.698C302.561 418.623 298.528 426.841 295.294 435.041C290.449 447.326 283.546 458.202 276.356 469.198" stroke="#634E35" stroke-linecap="round" stroke-linejoin="round"/>
<path d="M334.373 508.45C329.205 508.163 325.396 501.783 323.85 497.317C322.407 493.148 321.506 489.529 321.409 485.092C321.307 480.481 321.123 476.069 320.392 471.499" stroke="#634E35" stroke-linecap="round" stroke-linejoin="round"/>
<path d="M307.409 511.114C308.397 508.832 309.644 506.668 310.571 504.363C313.089 498.108 314.236 491.354 315.731 484.815" stroke="#634E35" stroke-linecap="round" stroke-linejoin="round"/>
<path d="M265.797 506.12C273.09 505.989 279.751 505.024 286.362 501.719C289.72 500.04 291.793 497.643 294.093 494.802" stroke="#634E35" stroke-linecap="round" stroke-linejoin="round"/>
<path d="M255.027 496.138C259.072 493.072 263.674 490.258 267.17 486.563C271.785 481.685 274.027 476.33 275.734 470" stroke="#634E35" stroke-linecap="round" stroke-linejoin="round"/>
<path d="M249.954 260.536C256.919 266.814 280.067 263.014 288.14 264.056C293.106 264.056 296.159 266.017 300.283 268.377C303.807 270.395 308.277 270.057 312.585 269.818C315.42 269.66 316.735 264.056 321.932 264.056H334.155H353.967C361.309 264.056 362.875 260.13 366.11 253.974C369.321 247.862 373.563 252.268 376.575 254.614C386.942 262.691 396.633 269.818 410.127 269.818C420.437 269.818 421.871 266.638 421.871 256.855C421.871 252.731 421.156 244.67 427.942 248.853C435.458 253.486 439.546 255.415 448.393 255.415C451.366 255.415 469.213 252.583 462.693 246.053C459.197 242.551 455.317 241.268 453.826 235.891C453.158 233.482 453.667 229.112 456.382 232.69C461.247 239.102 466.414 242.594 474.596 240.372C481.024 238.626 495.481 238.722 493.689 228.849C492.321 221.314 486.505 215.107 490.254 206.525C493.54 199.002 498.094 208.097 500.16 211.086C505.003 218.092 519.168 219.164 526.363 223.968C533.033 228.422 550.404 239.593 553.844 225.809C556.925 213.467 545.095 206.008 541.542 196.043C539.831 191.245 542.66 186.635 542.66 181.96C542.66 177.048 542.21 174.113 544.897 170.198C555.939 154.111 535.556 140.467 523.967 131.55C520.076 128.557 501.27 119.827 511.025 113.547C516.01 110.337 517.187 105.523 511.824 102.104C503.776 96.9746 482.899 94.5085 488.337 79.3797C490.306 73.8999 492.331 72.2516 492.331 65.857C492.331 60.1469 488.94 55.2149 482.984 55.2149C477.654 55.2149 471.45 58.6444 465.809 59.2157C458.528 59.9532 451.071 59.5358 443.76 59.5358C438.012 59.5358 428.377 60.5849 424.747 55.535C420.326 49.3847 419.724 43.5645 413.962 37.2914C408.378 31.2116 399.795 23.3717 391.354 26.0892C385.519 27.9678 379.722 27.8495 373.699 27.8495C370.927 27.8495 371.584 25.5346 370.743 23.3686C368.524 17.6538 364.62 12.307 359.878 8.40565C344.932 -3.89166 324.274 2.5598 316.899 18.8877C313.462 26.4985 310.635 29.2898 302.519 29.2898C300.026 29.2898 297.05 28.8269 294.611 29.3698C291.703 30.0171 291.742 34.4313 288.779 34.9709C277.054 37.1062 261.542 30.8074 250.753 36.8113C245.766 39.5861 245.84 43.6011 243.882 48.0135C242.543 51.0325 245.279 64.0856 241.326 65.2169C236.103 66.7117 229.678 64.5497 224.31 65.3769C212.913 67.1332 220.15 84.4359 209.371 84.0206C206.083 83.894 205.025 80.1858 201.782 79.7798C199.079 79.4414 195.209 79.1801 192.515 79.7798C186.782 81.0558 186.044 87.1562 186.044 91.9422C186.044 99.0847 183.117 101.304 175.978 101.304C172.907 101.304 170.687 99.6328 167.91 98.4235C163.253 96.3955 158.175 96.9832 153.21 96.9832C137.698 96.9832 143.458 111.966 150.414 119.708C154.017 123.717 160.794 132.506 161.519 137.951C162.74 147.125 155.719 139.4 153.131 145.233C150.155 151.939 153.633 166.485 160.161 170.118C166.476 173.632 182.364 178.743 180.212 188.441C179.056 193.654 167.687 187.102 170.945 194.283C173.464 199.833 176.654 205.267 181.73 209.005C188.27 213.822 205.633 214.293 206.176 225.169C206.52 232.058 205.154 242.053 209.93 247.573C214.942 253.365 225.597 256.598 232.698 252.534C235.931 250.684 240.772 247.731 245.001 249.974C246.18 250.599 248.447 254.195 248.995 255.415C249.61 256.782 248.781 259.479 249.954 260.536Z" fill="#47613B"/>
<path d="M185.834 142.948C184.471 141.131 185.981 138.303 186.558 136.457C186.558 135.56 184.769 132.239 184.006 131.857C183.343 131.526 182.876 130.949 182.179 130.723C181.527 130.512 181.192 129.889 180.541 129.715C179.696 129.49 179.012 129.286 178.272 128.801C175.951 127.28 174.032 125.379 171.813 123.76C168.934 121.659 164.797 120.828 165.008 116.608C165.045 115.871 166.287 115.618 166.804 115.474C170.287 114.502 173.896 114.169 177.295 112.859C180.402 111.662 182.004 110.498 183.093 107.566C184.185 104.624 185.895 101.632 188.89 100.225C192.304 98.6213 196.241 98.4593 199.791 97.1685C202.863 96.0517 205.273 94.843 205.273 91.3082C205.273 87.4677 210.261 85.052 213.56 84.2192C221.4 82.2402 229.729 82.788 237.568 80.6589C238.683 80.3561 240.91 80.0834 240.404 78.4377C240.159 77.6443 239.259 77.2807 239.064 76.4685C238.829 75.4854 239.194 74.3888 239.789 73.6172C243.736 68.5008 250.05 65.2256 254.881 60.9987C256.859 59.2675 260.1 56.9605 258.709 54.0515C257.66 51.8576 256.523 49.7087 257.464 47.1987C257.873 46.1087 258.845 44.9871 259.875 44.4419C260.967 43.8636 262.164 44.0165 263.372 44.0165H277.676C281.068 44.0165 284.477 44.1085 287.868 44.0008C289.185 43.959 290.243 43.8317 291.192 42.8823C293.077 40.9972 294.823 39.337 297.384 38.3768C301.516 36.8273 305.684 36.7289 310.049 36.4864C315.414 36.1884 320.371 35.2873 325.614 34.3755C326.33 34.2508 326.286 33.9943 326.512 33.383C326.946 32.205 328.186 31.2625 329.141 30.5373L329.19 30.5001C332.457 28.017 337.134 25.0179 341.398 25.0179C342.757 25.0179 344.141 24.9177 345.479 25.1912C347.851 25.6765 350.192 26.249 352.615 26.42C355.002 26.5885 357.245 26.806 359.483 27.7118C361.566 28.5548 362.648 30.499 364.351 31.8234C365.918 33.0419 367.398 32.6741 369.424 32.6741H386.028C389.64 32.6741 393.254 32.6427 396.866 32.6741C400.655 32.707 405.542 32.764 408.87 34.9426C412.852 37.5487 413.989 43.4477 414.762 47.7974C414.967 48.9521 414.766 50.4798 415.676 51.3891C416.45 52.1633 417.575 52.9219 418.574 53.3741C420.141 54.0825 421.6 55.8642 422.922 56.9343C425.703 59.1838 428.754 61.2422 431.902 62.9521C439.724 67.2012 450.123 67.0655 458.509 64.4172C461.162 63.5795 463.601 62.448 466.417 62.448C471.426 62.448 476.441 62.3703 481.446 62.5898C483.699 62.6886 485.934 62.7316 488.189 62.7316C488.986 62.7316 490.153 62.5209 490.945 62.7473C491.786 62.9875 490.274 64.4635 490.095 64.5747C489.119 65.1785 487.424 66.1785 487.165 67.4103C486.998 68.1997 487.133 69.1547 487.133 69.9624C487.133 71.7928 486.577 72.0356 485.826 73.5384C485.079 75.0325 483.487 76.0093 482.754 77.4767C482.249 78.4866 482.313 79.8082 482.313 80.8952C482.313 82.9371 482.164 84.8507 483.636 86.4404C485.102 88.0235 486.707 89.8698 488.693 90.8041C490.268 91.5454 491.183 93.1827 490.709 94.9158C490.242 96.6231 485.718 104.293 488.898 104.399C489.616 104.423 491.79 104.042 492.237 104.825C492.786 105.784 493.508 106.389 494.371 107.112L494.443 107.172C496.993 109.308 499.447 111.371 501.815 113.71C503.896 115.764 506.528 116.507 508.747 118.31C510.625 119.836 511.844 121.959 512.307 124.327C513.024 127.99 494.76 130.295 497.688 133.905C498.878 135.374 501.376 136.359 502.918 137.371C505.425 139.017 507.639 140.569 509.345 143.074C510.984 145.48 511.912 149.163 509.471 151.36C507.896 152.779 505.179 154.009 504.493 156.181C503.942 157.925 505.483 158.656 506.793 159.363C511.847 162.089 518.412 163.823 521.948 168.752C523.328 170.676 523.467 175.401 521.822 177.196C519.714 179.496 514.329 178.457 511.74 177.794C507.963 176.828 505.407 175.604 502.824 172.848C499.306 169.095 495.525 165.919 491.355 162.86C486.446 159.259 480.124 156.938 474.026 158.922C472.323 159.476 472.347 160.401 472.386 161.911L472.388 161.978C472.471 165.22 475.677 167.162 477.854 169.051C478.282 169.422 481.586 172.339 480.044 173.21C477.935 174.402 475.221 174.735 472.876 175.022C468.022 175.616 463.155 176.071 458.304 176.707C455.881 177.025 453.311 177.145 451.042 178.141C449.762 178.703 448.608 179.658 447.435 180.409C445.162 181.864 441.132 183.561 439.967 186.207C439.288 187.751 439.778 190.357 439.778 192.02C439.778 195.827 440.37 200.336 437.1 203.079C434.551 205.217 431.098 205.947 427.885 206.324C422.171 206.994 416.169 207.078 410.461 206.292C406.411 205.734 402.473 204.871 398.851 202.937C396.377 201.616 394.691 199.857 392.597 198.053C388.914 194.88 384.816 194.587 380.152 194.587C377.76 194.587 376.558 194.076 377.553 196.698C378.498 199.192 379.277 201.516 379.585 204.213L379.594 204.29C379.875 206.747 380.291 210.383 378.482 212.405C377.063 213.991 375.1 213.87 373.142 213.87C369.03 213.87 364.935 213.641 360.838 213.287C354.84 212.768 347.211 212.668 342.391 208.466C340.338 206.677 339.714 204.125 339.398 201.519C339.081 198.907 339.284 195.037 336.468 193.611C331.808 191.251 326.635 190.05 321.439 190.05C319.374 190.05 318.778 190.067 318.698 192.477C318.562 196.543 318.984 200.792 317.312 204.638C315.022 209.903 309.568 212.114 304.173 212.168C295.948 212.251 286.663 211.803 278.873 208.797C277.969 208.448 274.547 207.318 274.462 206.024C274.404 205.13 274.945 204.187 275.376 203.441C277.178 200.323 271.075 203.227 270.272 201.33C269.631 199.815 270.802 197.83 271.627 196.698C272.397 195.641 274.369 193.688 274.462 192.382C274.644 189.837 271.164 187.292 268.728 188.192C261.467 190.875 254.499 196.981 246.39 194.934C242.733 194.011 239.393 192.113 235.677 191.311C232.455 190.615 228.157 190.79 225.28 189.027C221.398 186.647 226.11 180.238 227.974 178.125C229.339 176.578 230.602 174.994 231.928 173.446C232.979 172.22 234.311 170.751 234.464 169.067C234.508 168.591 234.815 166.069 234.181 165.964C231.862 165.577 228.616 166.592 226.43 167.208C221.09 168.714 216.475 169.288 210.992 167.917C207.812 167.122 212.448 161.758 212.772 160.277C213.877 155.224 206.211 156.59 203.178 156.59C198.9 156.59 194.881 155.473 190.796 154.29C188.82 153.718 185.141 152.469 185.141 149.927C185.141 147.976 186.558 146.391 186.558 144.444C186.558 143.765 186.239 143.489 185.834 142.948Z" fill="#577942"/>
<path d="M242.833 65.2735C248 60.4279 248.037 58.6282 252.553 53.033C257.278 50.6145 272.24 53.6113 272.686 46.49C272.954 42.2078 276.701 39.86 280.012 38.4666C284.65 36.5149 291.292 39.5998 295.628 40.8754C301.826 42.6981 308.452 44.55 314.868 45.067C315.846 45.1458 320.947 46.161 321.316 44.7934C322.245 41.3563 315.77 40.3883 313.918 38.8842C311.513 36.9304 318.615 35.2376 319.086 35.1424C323.744 34.1997 328.317 34.659 332.974 34.2307C333.645 34.1689 336.341 34.6379 336.852 34.1473C337.33 33.6884 336.486 32.7937 336.672 32.2288C337.005 31.2237 341.379 34.4787 341.675 34.8008C344.636 38.0251 347.981 42.5699 351.625 44.8601C355.245 47.1347 360.999 46.9228 364.904 45.5915C367.926 44.5611 363.107 41.6705 363.22 39.007C363.301 37.0841 360.263 36.3668 362.507 31.5985C365.552 26.6912 369.828 29.7913 370.558 29.837C374.047 30.0556 369.127 39.2216 372.564 38.4925C376.114 37.7393 379.095 37.0142 382.728 37.7742C389.581 39.2073 396.536 41.2976 402.927 44.3096C407.267 46.3549 403.143 48.6236 400.538 49.706C398.998 50.3458 395.529 51.4285 399.237 51.7074C408.24 52.3847 420.962 51.7799 427.452 59.7991C430.374 63.4088 431.346 68.5472 434.827 71.6043C437.128 73.6249 442.016 73.0888 444.856 73.0607C447.239 73.0371 449.617 71.1456 451.724 70.1282C455.953 68.0867 460.693 65.6596 465.365 65.4366C469.817 65.2241 474.609 66.1755 478.835 67.5351C481.882 68.5158 484.814 68.8369 487.019 71.5613C487.432 72.0717 487.34 73.1233 486.677 73.3467C483.322 74.4771 479.827 75.1025 476.352 75.5106C473.872 75.8021 472.409 76.4395 472.293 79.2215C472.189 81.7149 473.277 84.1 475.628 84.4997C478.82 85.0422 488.085 85.4639 487.785 90.2552C487.664 92.1788 485.558 92.683 485.424 94.8253C485.109 99.8431 488.712 103.636 491.276 107.388C494.901 112.694 499.214 116.762 501.157 123.341C501.679 125.11 501.595 124.809 500.467 123.674C498.732 121.927 496.857 120.303 494.966 118.762C494.411 118.31 489.295 113.642 489.06 116.259C488.947 117.516 489.02 118.84 488.798 120.082C488.518 121.644 485.382 120.797 484.446 120.738C482.343 120.606 480.76 119.994 478.812 119.242L478.777 119.228C475.613 118.006 471.99 117.253 469.266 115.044C465.635 112.101 468.337 108.818 466.427 105.154C464.827 102.085 461.052 99.7563 458.216 98.2404C456.614 97.3839 459.576 100.707 459.84 101.379C463.491 110.649 442.385 103.814 439.772 102.33C437.763 101.189 436.128 97.632 435.081 95.5112C434.362 94.0545 433.365 92.4489 432.26 91.2439C429.128 87.8293 426.314 84.0375 423 80.8264C419.386 77.3245 414.468 74.0688 409.531 73.5832C408.377 73.4697 406.441 72.8866 406.615 74.1283C407.096 77.5702 409.1 82.4135 407.468 85.9014C406.508 87.9534 399.848 79.9977 399.17 79.2583C392.274 71.7308 381.298 68.3047 371.733 67.2001C369.425 66.9335 362.32 65.1037 364.408 69.7024C364.823 70.6183 371.452 80.7572 368.844 80.9471C362.252 81.4271 355.715 79.4313 349.085 80.6378C344.746 81.4272 348.751 82.2613 348.716 84.6802C348.686 86.798 344.53 87.9591 343.153 88.8489C339.731 91.0602 336.83 94.1162 333.392 96.3684C327.249 100.392 316.539 99.2616 310.044 97.4154C309.034 97.1282 302.091 94.325 304.686 92.0606C305.971 90.9381 308.352 90.3694 309.836 89.698C312.305 88.5809 314.825 87.6086 317.297 86.5014C317.588 86.3712 325.252 82.0478 323.589 81.751C319.107 80.9508 314.246 81.6734 309.691 81.3321C308.94 81.2758 300.387 80.7774 303.064 78.2066C306.909 74.5131 312.521 73.8463 316.594 70.4966C317.354 69.8718 316.187 68.9954 315.692 68.7085C312.514 66.866 308.234 66.7136 304.714 66.5903C299.168 66.3961 294.242 67.1869 289.199 69.9097C286.779 71.2165 284.649 73.028 282.279 74.395C279.091 76.2341 276.009 78.1068 272.603 79.4604C270.431 80.3233 262.676 83.4615 260.66 80.9708C259.658 79.7337 261.202 76.0015 258.598 76.3495C256.563 76.6215 254.04 78.6408 252.92 80.5111C251.776 82.4219 249.666 83.5083 248.055 84.9493C246.035 86.755 244.035 87.1569 241.541 87.0006C239.85 86.8947 239.957 84.3823 240.761 82.8863C243.312 78.1397 248.845 77.3887 252.443 73.7806C253.864 72.3552 254.578 69.2427 251.911 70.4849C249.578 71.5718 247.155 72.3508 244.735 73.1723C242.392 73.9676 240.25 75.3749 237.746 75.4448C233.966 75.5504 242.048 66.009 242.833 65.2735Z" fill="#7E9F54"/>
<path d="M211.22 118.642C214.662 117.022 217.422 114.569 221.371 114.428C221.886 111.855 221.216 110.444 218.477 109.448C216.575 108.757 214.602 108.546 212.859 107.363C211.884 106.701 210.517 104.3 211.646 103.17C212.524 102.292 216.886 102.863 217.924 102.958C220.446 103.187 222.606 104.469 225.202 104.469C227.249 104.469 240.481 98.2233 240.907 100.638C241.03 101.332 241.673 101.437 241.673 102.255V104.554C241.673 106.382 239.762 107.375 238.822 108.852C237.366 111.139 242.583 110.206 243.461 110.214C244.956 110.229 249.581 109.7 250.782 110.683C251.374 111.167 250.174 111.819 249.909 111.917C246.44 113.195 242.849 114.283 239.396 115.598C237.765 116.22 232.008 117.56 232.097 119.876C232.186 122.193 236.291 123.993 233.033 125.622C231.036 126.62 227.646 127.201 226.926 129.793C226.484 131.384 228.594 135.68 226.904 136.645C225.831 137.259 225.68 137.794 224.244 137.794C222.939 137.794 221.349 138.057 220.073 137.773C219.362 137.615 220.047 135.35 220.137 134.943C220.304 134.191 220.739 130.899 219.605 130.899C217.084 130.899 215.112 130.972 212.944 132.432C209.893 134.487 209.848 139.826 205.092 137.007C204.151 136.45 200.453 134.07 202.006 132.432C203.163 131.21 204.507 130.044 205.879 129.069C206.958 128.302 208.646 127.536 209.071 126.154C209.876 123.537 205.3 123.588 206.517 121.706C207.442 120.276 209.738 119.339 211.22 118.642Z" fill="#47613B"/>
<path d="M264.359 146.52C260.411 145.305 265.563 141.915 267.338 140.859C268.473 141.237 271.097 141.791 271.169 143.157C271.233 144.381 271.665 146.605 270.019 146.605C268.277 146.605 266.003 147.026 264.359 146.52Z" fill="#47613B"/>
<path d="M363.102 114.981C367.44 112.242 370.962 109.254 375.743 107.533C374.39 107.082 373.011 106.565 372.125 105.426C371.112 104.123 372.861 103.137 373.636 102.362C375.513 100.485 378.836 101.021 381.233 101.021C383.469 101.021 383.404 101.779 383.404 103.703C383.404 104.824 382.982 106.001 384.362 106.001H388.575C391.871 106.001 394.89 106.145 396.619 109.257C397.685 111.176 394.328 110.597 393.363 110.597C390.483 110.597 386.067 109.789 383.404 110.981C379.646 112.662 387.313 115.226 383.404 116.343C378.366 117.783 373.875 117.876 368.592 117.876C368.222 117.876 359.903 117.524 360.889 116.428C361.358 115.907 362.528 115.344 363.102 114.981Z" fill="#47613B"/>
<path d="M205.312 201.94C201.529 200.216 197.604 198.989 193.824 197.23C192.7 197.23 187.826 200.897 187.151 201.915C185.897 203.809 186.039 204.369 183.751 204.369C182.709 204.369 181.373 202.284 180.753 201.444C179.604 199.889 179 197.454 179 195.445C179 192.677 181.392 194.998 182.421 194.998C183.886 194.998 183.809 194.769 184.702 193.66C185.248 192.981 185.918 192.49 186.475 191.825C187.121 191.054 187.844 189.244 188.693 188.801C189.608 188.323 190.605 189.786 191.332 190.189C194.713 192.061 198.8 193.021 202.377 194.329C206.495 195.835 210.547 197.501 214.519 199.486C215.563 200.007 218.151 200.944 218.151 202.584C218.151 205.061 215.871 205.462 215.871 208.039C215.871 213.413 224.315 213.753 227.422 214.856C231.212 216.201 236.741 218.914 237.537 224.054C237.694 225.07 237.637 229.744 238.361 228.64C239.607 226.737 241.629 226.681 243.492 226.681C249.79 226.681 255.114 232.078 260.935 234.168C263.93 235.244 270.446 235.659 273.056 233.152C273.835 232.403 273.925 231.684 274.323 230.698C275.068 228.852 276.777 228.447 278.335 227.747C282.151 226.035 285.391 225.789 289.422 225.789C293.22 225.789 296.324 228.02 299.706 229.706C301.506 230.603 302.901 232.259 304.605 233.35C306.096 234.305 307.657 234.119 309.293 234.367C319.066 235.847 328.937 236.655 338.815 236.028C341.972 235.827 345.488 234.782 345.488 230.474C345.488 228.293 346.377 225.416 348.698 225.343C355.96 225.112 363.656 226.488 369.9 231.144C373.937 234.155 377.238 235.199 382.063 235.16C384.112 235.144 388.441 236.035 388.441 232.706C388.441 229.587 390.749 229.118 393.023 230.053C394.89 230.82 396.701 231.865 398.704 232.012C403.28 232.347 408.584 230.116 412.979 228.913C417.054 227.797 423.308 226.803 426.452 223.112C427.801 221.528 428.549 219.387 429.661 217.558C431.083 215.221 433.027 213.804 435.279 212.848C437.466 211.919 439.839 212.051 442.121 211.757C444.843 211.406 447.533 210.718 450.23 210.171C451.555 209.902 459.627 209.293 459.521 207.047C459.449 205.517 458.761 204.038 458.761 202.312C458.761 197.018 461.481 193.023 465.687 191.776C468.171 191.039 470.725 191.123 473.205 190.437C474.565 190.06 475.802 189.396 477.196 189.197C479.718 188.838 482.412 187.314 484.705 186.016L484.777 185.974C488.819 183.687 494.685 181.668 499.074 184.115C502.01 185.753 503.199 187.441 505.05 190.338C505.883 191.642 507.177 191.921 508.344 192.544C509.326 193.068 510.807 192.805 511.85 192.767C515.034 192.652 518.095 191.875 521.331 191.875C524.568 191.875 527.012 192.187 529.757 194.453C531.157 195.608 532.49 198.048 533.979 199.429C534.486 198.897 534.996 198.353 535.712 198.593C536.126 198.732 536.174 200.616 535.311 200.304C534.851 200.137 534.409 199.827 533.979 199.429C533.734 199.687 533.488 199.943 533.22 200.105C530.086 202.003 525.956 201.246 522.577 201.246H513.75C511.691 201.246 509.87 200.443 507.88 200.353C507.083 200.317 506.537 199.312 506.021 198.717C504.427 196.877 502.742 195.426 500.869 194.007C498.479 192.196 497.483 191.653 494.681 192.098C489.277 192.955 483.507 195.965 478.78 199.238C475.652 201.403 470.8 204.878 474.81 208.584C476.902 210.518 484.246 217.831 477.386 216.765C476.013 216.552 473.195 215.214 475.866 216.864C477.631 217.955 480.516 219.3 480.786 221.996C481.217 226.299 477.749 229.359 474.282 229.359C470.409 229.359 467.908 228.44 464.843 225.541C462.443 223.271 461.162 221.581 457.916 222.417C451.412 224.094 445.969 229.195 444.993 237.094C444.529 240.842 444.142 246.371 440.114 244.952C436.177 243.566 432.875 240.801 428.648 240.267C424.902 239.794 421.048 240.069 417.287 240.069C415.972 240.069 414.228 239.73 413.021 240.54C410.302 242.364 418.029 250.099 417.625 252.712C417.121 255.965 410.418 254.795 408.586 254.795C405.155 254.795 402.245 254.67 399.084 253.01C395.952 251.365 392.054 251.552 388.779 250.134C384.59 248.32 380.338 245.491 377.08 241.878C374.179 238.663 372.31 236.893 368.084 236.945C364.987 236.983 359.663 237.583 357.673 240.738C356.457 242.664 356.511 244.02 356.511 246.316C356.511 248.303 355.588 249.482 353.977 249.44C350.252 249.342 346.577 248.547 342.785 248.547C339.533 248.547 336.293 248.711 333.05 248.993C332.619 249.031 329.93 248.98 329.693 249.539C329.522 249.94 333.716 253.217 334 253.753C334.556 254.802 334.646 256.897 334.423 258.141C333.913 260.984 325.593 259.726 323.78 259.703C320.626 259.663 317.096 258.282 314.15 257.001C309.357 254.917 307.877 248.759 302.958 247.109C298.392 245.578 293.457 245.201 288.725 245.448C287.851 245.494 284.032 245.622 285.22 247.754C286.138 249.402 287.399 250.945 288.472 252.464C289.801 254.346 290.66 255.093 287.521 255.216C281.31 255.459 273.655 255.996 267.819 253.01C266.425 252.296 266.425 251.674 266.425 250.183L266.425 250.109C266.425 246.998 259.401 248.101 257.725 248.101C253.771 248.101 249.617 247.649 245.709 248.374C241.528 249.149 237.766 249.886 233.525 249.886C232.066 249.886 222.915 251.1 224.824 246.936C226.456 243.379 225.728 241.786 225.352 238.259C225.26 237.392 224.483 235.415 225.204 234.689C226.2 233.687 227.638 231.531 227.95 230.103C228.366 228.193 227.479 227.819 226.049 227.128C221.978 225.16 217.243 224.579 213.674 221.227C211.085 218.796 212.07 213.291 212.07 209.724C212.07 208.053 212.052 207.226 211.288 205.882C210.157 203.89 207.099 202.754 205.312 201.94Z" fill="#3A4F30"/>
<path d="M249.954 260.536C256.919 266.814 280.067 263.014 288.14 264.056C293.106 264.056 296.159 266.017 300.283 268.377C303.807 270.395 308.277 270.057 312.585 269.818C315.42 269.66 316.735 264.056 321.932 264.056H334.155H353.967C361.309 264.056 362.875 260.13 366.11 253.974C369.321 247.862 373.563 252.268 376.575 254.614C386.942 262.691 396.633 269.818 410.127 269.818C420.437 269.818 421.871 266.638 421.871 256.855C421.871 252.731 421.156 244.67 427.942 248.853C435.458 253.486 439.546 255.415 448.393 255.415C451.366 255.415 469.213 252.583 462.693 246.053C459.197 242.551 455.317 241.268 453.826 235.891C453.158 233.482 453.667 229.112 456.382 232.69C461.247 239.102 466.414 242.594 474.596 240.372C481.024 238.626 495.481 238.722 493.689 228.849C492.321 221.314 486.505 215.107 490.254 206.525C493.54 199.002 498.094 208.097 500.16 211.086C505.003 218.092 519.168 219.164 526.363 223.968C533.033 228.422 550.404 239.593 553.844 225.809C556.925 213.467 545.095 206.008 541.542 196.043C539.831 191.245 542.66 186.635 542.66 181.96C542.66 177.048 542.21 174.113 544.897 170.198C555.939 154.111 535.556 140.467 523.967 131.55C520.076 128.557 501.27 119.827 511.025 113.547C516.01 110.337 517.187 105.523 511.824 102.104C503.776 96.9746 482.899 94.5085 488.337 79.3797C490.306 73.8999 492.331 72.2516 492.331 65.857C492.331 60.1469 488.94 55.2149 482.984 55.2149C477.654 55.2149 471.45 58.6444 465.809 59.2157C458.528 59.9532 451.071 59.5358 443.76 59.5358C438.012 59.5358 428.377 60.5849 424.747 55.535C420.326 49.3847 419.724 43.5645 413.962 37.2914C408.378 31.2116 399.795 23.3717 391.354 26.0892C385.519 27.9678 379.722 27.8495 373.699 27.8495C370.927 27.8495 371.584 25.5346 370.743 23.3686C368.524 17.6538 364.62 12.307 359.878 8.40565C344.932 -3.89166 324.274 2.5598 316.899 18.8877C313.462 26.4985 310.635 29.2898 302.519 29.2898C300.026 29.2898 297.05 28.8269 294.611 29.3698C291.703 30.0171 291.742 34.4313 288.779 34.9709C277.054 37.1062 261.542 30.8074 250.753 36.8113C245.766 39.5861 245.84 43.6011 243.882 48.0135C242.543 51.0325 245.279 64.0856 241.326 65.2169C236.103 66.7117 229.678 64.5497 224.31 65.3769C212.913 67.1332 220.15 84.4359 209.371 84.0206C206.083 83.894 205.025 80.1858 201.782 79.7798C199.079 79.4414 195.209 79.1801 192.515 79.7798C186.782 81.0558 186.044 87.1562 186.044 91.9422C186.044 99.0847 183.117 101.304 175.978 101.304C172.907 101.304 170.687 99.6328 167.91 98.4235C163.253 96.3955 158.175 96.9832 153.21 96.9832C137.698 96.9832 143.458 111.966 150.414 119.708C154.017 123.717 160.794 132.506 161.519 137.951C162.74 147.125 155.719 139.4 153.131 145.233C150.155 151.939 153.633 166.485 160.161 170.118C166.476 173.632 182.364 178.743 180.212 188.441C179.056 193.654 167.687 187.102 170.945 194.283C173.464 199.833 176.654 205.267 181.73 209.005C188.27 213.822 205.633 214.293 206.176 225.169C206.52 232.058 205.154 242.053 209.93 247.573C214.942 253.365 225.597 256.598 232.698 252.534C235.931 250.684 240.772 247.731 245.001 249.974C246.18 250.599 248.447 254.195 248.995 255.415C249.61 256.782 248.781 259.479 249.954 260.536Z" stroke="#3D5232" stroke-width="3" stroke-linecap="round" stroke-linejoin="round"/>
</svg>
