<svg width="151" height="80" viewBox="0 0 151 80" fill="none" xmlns="http://www.w3.org/2000/svg">
<path d="M21.3758 73.9541C20.2731 73.7528 19.6851 73.6887 18.9318 73.0454C18.1761 72.6867 16.4023 72.7254 15.4846 72.7247L11.0594 72.7212C8.98586 72.7196 8.3415 72.3317 8.34261 70.9172C8.34334 69.9984 9.0349 68.8334 8.61015 67.9261C8.24565 67.1476 6.2869 66.821 5.33783 66.5633C3.71006 66.1214 1.86355 65.8911 0.524255 65.0286C-0.0851865 64.6361 -0.0993109 64.3291 0.210324 63.7859C0.726816 62.8797 1.38899 61.8905 2.35043 61.1849C3.40532 60.4108 4.33338 59.535 5.35228 58.7318C5.67357 58.4786 5.84336 57.9333 5.59349 57.6132C5.02872 56.8897 3.95576 56.4811 2.97603 56.0213C2.21257 55.663 0.300035 55.0935 0.300646 54.3175C0.301506 53.2241 1.96335 52.0651 2.95486 51.3283C3.98868 50.56 4.97662 49.6866 5.94014 48.8693C6.59561 48.3133 7.1534 47.9069 6.71217 47.174C6.2646 46.4307 5.01274 45.8683 4.08651 45.4761C3.58573 45.2641 1.21203 44.7779 2.13186 44.0732C3.03371 43.3822 4.11142 42.9589 5.38154 42.6154C6.8238 42.2253 8.08906 41.0754 9.08769 40.2924C9.92819 39.6334 10.456 39.1486 10.4566 38.2738C10.4576 37.0645 10.0512 35.4436 10.9404 34.3761C11.7904 33.3555 13.6127 33.2947 15.1096 33.2959C17.5245 33.2978 19.9288 33.4057 22.3441 33.4076C24.2556 33.4091 25.6646 33.2886 27.466 32.8345C28.8827 32.4774 30.5114 32.0296 31.7598 31.4247C32.3211 31.1527 33.0873 31.0284 32.7716 30.4245C32.4276 29.7662 32.1213 29.2455 32.2759 28.5163C32.5937 27.0166 35.5623 26.9525 37.1831 26.9538C39.923 26.956 42.8595 27.1581 45.5532 26.7484C46.8667 26.5486 48.5487 26.3672 49.6146 25.7624C50.6655 25.1661 51.9359 24.6512 51.9367 23.6326L51.9367 23.5905C51.937 22.7545 51.9373 22.1804 53.0652 21.7139C53.6437 21.4747 54.0301 21.0703 54.6239 20.8436C55.1386 20.6472 55.665 20.4672 56.1906 20.2855C57.6133 19.7936 58.9669 19.4174 60.4676 19.0758C61.871 18.7565 63.595 18.9018 65.0422 18.9263C66.2719 18.9472 67.5015 19.0045 68.6966 19.2177C70.1528 19.4776 71.0885 19.9137 72.3419 20.5161C73.7744 21.2045 74.8779 21.7869 76.6168 22.0504C77.5742 22.1955 78.5224 22.6513 79.467 22.7416C81.1039 22.898 82.8611 22.6686 84.3072 22.1094C86.7192 21.1768 89.0414 21.2567 91.5169 22.0386C93.0073 22.5093 94.4996 22.8751 95.5016 23.8259C96.0093 24.3076 96.3593 24.8444 97.1414 25.1462C98.4966 25.669 99.719 26.0491 101.276 26.0503C102.203 26.0511 103.106 25.9458 104.027 25.9465C105.345 25.9475 106.582 25.6424 107.865 25.4726C109.127 25.3054 110.249 25.297 111.519 25.4225C113.388 25.6071 116.317 26.684 116.373 28.2291C116.386 28.5675 116.134 29.4256 116.455 29.719C116.914 30.1387 117.843 30.4979 118.518 30.6686C120.398 31.1442 125.393 32.059 124.54 34.1004C124.107 35.1364 124.723 36.5088 125.532 37.3869C125.917 37.8051 126.896 38.1447 127.478 38.413C128.506 38.8863 129.156 39.2275 129.64 40.0693C130.296 41.2116 130.417 42.5695 131.311 43.6449C131.773 44.2 132.808 45.2238 133.812 45.2602C135.354 45.3162 136.402 45.1943 137.624 46.0641C138.972 47.0236 139.456 48.1961 139.477 49.5279C139.491 50.3632 139.136 51.6895 139.923 52.4017C140.364 52.8018 140.97 53.1155 141.579 53.3805C142.532 53.7949 144.446 54.0217 144.686 54.961C144.952 56.005 143.475 56.723 142.422 57.138C141.461 57.5163 140.809 57.5544 141.111 58.3617C141.331 58.9489 141.931 59.2988 142.544 59.7348C143.315 60.2838 144.456 60.9284 145.427 61.274C145.84 61.4213 146.029 61.8564 146.404 62.0638C147.412 62.6218 148.14 63.6876 148.747 64.4798C149.232 65.1123 149.325 66.048 149.127 66.7648C148.937 67.453 147.971 68.0992 146.996 68.1587C145.2 68.2682 143.266 68.2181 141.468 68.1543C139.235 68.0752 137.09 67.6393 134.839 67.6251C132.638 67.6111 130.394 67.5361 128.226 67.8554C126.727 68.0761 128.54 68.7603 129.029 69.0572C130.079 69.695 130.644 70.65 129.839 71.5722C129.333 72.1517 128.206 72.0714 127.385 72.0708L123.449 72.0677C120.715 72.0655 117.979 72.0476 115.245 72.0612C112.66 72.0741 108.043 71.7171 107.164 73.9627C106.736 75.0547 107.059 76.2944 104.883 76.2927L99.5293 76.2885C98.1153 76.2874 96.4535 76.2247 95.1534 76.6855C93.8749 77.1385 94.329 78.806 92.6075 78.9269C91.22 79.0244 89.6545 78.9932 88.2734 78.9058C87.1821 78.8368 85.759 78.7777 84.926 78.1848C83.8904 77.4478 82.6184 76.777 81.0488 76.7038C79.8431 76.6476 78.211 76.5145 77.104 76.9068C76.6966 77.0512 76.7903 77.4499 76.6227 77.7308C76.2681 78.3252 73.9312 78.0702 73.3076 78.0697C71.5362 78.0683 69.8541 77.9978 68.0952 77.8536C66.4625 77.7197 65.7668 77.4901 65.7677 76.3679C65.768 76.0529 65.3372 75.8387 64.9976 75.6725C63.8654 75.1183 62.5137 75.161 61.1951 75.2027L61.1444 75.2043C59.7875 75.247 55.178 74.9331 55.1767 76.5186C55.1764 76.9389 55.3005 77.3437 54.8443 77.6548C54.2183 78.0818 53.0724 78.0538 52.2585 78.0531C50.6164 78.0518 47.8631 77.9864 47.42 76.5655C47.0089 75.2474 45.8124 75.2923 44.1725 75.291C43.0467 75.2901 42.1325 75.3238 41.0563 75.5064C39.9462 75.6948 38.8705 76 37.7327 76.1339C36.9095 76.2307 33.5474 76.5921 33.5482 75.5771C33.5488 74.8526 34.1272 73.9595 33.177 73.4334C32.5663 73.0953 30.9457 73.4776 30.3675 73.6432C29.414 73.9163 28.5821 74.2936 27.6155 74.5361C26.6517 74.7778 25.0649 74.7422 24.0354 74.6157C23.1164 74.5027 22.2809 74.1193 21.3758 73.9541Z" fill="black" fill-opacity="0.35"/>
<path d="M34.4649 71.6881C33.4741 71.4346 32.9458 71.3542 32.2685 70.5415C31.5893 70.0887 29.9957 70.1394 29.1712 70.1394H25.1954C23.3325 70.1394 22.7533 69.6496 22.7533 67.8611C22.7533 66.6994 23.3738 65.2256 22.9916 64.0789C22.6635 63.0948 20.9035 62.6839 20.0506 62.359C18.5879 61.8018 16.9287 61.5124 15.7249 60.4232C15.177 59.9275 15.1641 59.5394 15.4419 58.8522C15.9053 57.7059 16.4995 56.4544 17.3628 55.5614C18.31 54.5815 19.1432 53.4731 20.0581 52.4566C20.3465 52.1361 20.4987 51.4465 20.274 51.042C19.7661 50.1278 18.8018 49.6121 17.9212 49.0318C17.2351 48.5795 15.5164 47.8612 15.5164 46.88C15.5164 45.4976 17.0086 44.0305 17.8989 43.0978C18.8272 42.1253 19.7142 41.02 20.5792 39.9856C21.1678 39.282 21.6686 38.7675 21.2717 37.8413C20.869 36.9019 19.7439 36.192 18.9115 35.6971C18.4614 35.4295 16.3285 34.8171 17.1544 33.9251C17.9641 33.0505 18.9321 32.5142 20.073 32.0786C21.3685 31.584 22.5044 30.1287 23.401 29.1377C24.1557 28.3036 24.6295 27.6901 24.6295 26.5839C24.6295 25.0549 24.2632 23.0058 25.0614 21.6551C25.8244 20.3638 27.4615 20.2851 28.8064 20.2851C30.976 20.2851 33.1362 20.4191 35.3062 20.4191C37.0235 20.4191 38.2894 20.2654 39.9075 19.6895C41.18 19.2365 42.643 18.6687 43.7642 17.9026C44.2682 17.5582 44.9565 17.4002 44.6725 16.6369C44.3629 15.8049 44.0874 15.1468 44.2258 14.2246C44.5103 12.328 47.1773 12.2441 48.6335 12.2441C51.0951 12.2441 53.7335 12.4968 56.1533 11.9761C57.3333 11.7222 58.8443 11.491 59.8015 10.7253C60.7453 9.97023 61.8862 9.31798 61.8862 8.03003L61.8862 7.97672C61.8859 6.91976 61.8858 6.19378 62.8988 5.60283C63.4183 5.29977 63.7652 4.78809 64.2985 4.50091C64.7608 4.25199 65.2337 4.02385 65.7057 3.7936C66.9836 3.17024 68.1995 2.69316 69.5475 2.25985C70.8082 1.85464 72.3571 2.03672 73.6574 2.06627C74.7622 2.09138 75.867 2.16264 76.9408 2.4311C78.2493 2.75822 79.0902 3.30867 80.2168 4.06908C81.5043 4.93818 82.4961 5.67345 84.0586 6.00488C84.9188 6.18736 85.7711 6.76283 86.6198 6.87599C88.0906 7.0721 89.6691 6.78033 90.9679 6.07189C93.1343 4.89022 95.2207 4.9889 97.4454 5.9751C98.7847 6.56883 100.126 7.0298 101.027 8.23105C101.483 8.83967 101.798 9.5181 102.501 9.89882C103.719 10.5585 104.817 11.038 106.216 11.038C107.049 11.038 107.86 10.9039 108.688 10.9039C109.871 10.9039 110.983 10.5169 112.135 10.3009C113.269 10.0882 114.277 10.0764 115.419 10.2339C117.098 10.4655 119.73 11.8242 119.782 13.7779C119.793 14.2056 119.568 15.2909 119.856 15.6615C120.268 16.1918 121.104 16.6451 121.71 16.8603C123.399 17.4598 127.888 18.6115 127.123 21.1935C126.734 22.5039 127.289 24.2385 128.016 25.348C128.362 25.8765 129.242 26.3049 129.766 26.6435C130.689 27.241 131.274 27.6717 131.709 28.7356C132.3 30.1793 132.409 31.8962 133.213 33.255C133.628 33.9565 134.559 35.2499 135.462 35.295C136.847 35.3643 137.788 35.2091 138.886 36.3076C140.098 37.5195 140.534 39.0016 140.554 40.6855C140.567 41.7417 140.249 43.419 140.956 44.3188C141.353 44.8242 141.898 45.2203 142.445 45.5548C143.301 46.0778 145.021 46.3627 145.237 47.5501C145.477 48.8698 144.151 49.7792 143.205 50.3049C142.342 50.7843 141.756 50.8331 142.028 51.8536C142.226 52.5958 142.766 53.0376 143.316 53.5883C144.01 54.2817 145.036 55.0957 145.907 55.5316C146.279 55.7174 146.449 56.2674 146.786 56.5293C147.692 57.2338 148.347 58.5808 148.893 59.5819C149.329 60.3811 149.413 61.5642 149.235 62.4707C149.065 63.341 148.198 64.1591 147.322 64.2352C145.709 64.3755 143.971 64.314 142.356 64.2352C140.349 64.1373 138.422 63.5884 136.4 63.5726C134.422 63.5571 132.406 63.4646 130.458 63.8704C129.111 64.151 130.741 65.0143 131.18 65.3893C132.125 66.1946 132.632 67.4015 131.91 68.5684C131.456 69.3017 130.443 69.2013 129.706 69.2013H126.17C123.713 69.2013 121.255 69.1813 118.799 69.2013C116.476 69.2202 112.328 68.7733 111.539 71.6136C111.156 72.9947 111.447 74.562 109.492 74.562H104.682C103.412 74.562 101.919 74.4844 100.751 75.0683C99.6029 75.6424 100.012 77.7503 98.4654 77.905C97.2189 78.0296 95.8123 77.9917 94.5715 77.8826C93.5909 77.7964 92.3123 77.7231 91.5635 76.9743C90.6326 76.0434 89.4893 75.1965 88.0791 75.1055C86.9958 75.0356 85.5294 74.8689 84.5351 75.3661C84.1692 75.549 84.2536 76.0531 84.1033 76.4084C83.7851 77.1604 81.6853 76.8403 81.1251 76.8403C79.5336 76.8403 78.0223 76.7528 76.442 76.5722C74.975 76.4046 74.3498 76.115 74.3498 74.696C74.3498 74.2977 73.9627 74.0273 73.6574 73.8174C72.6398 73.1179 71.4254 73.1732 70.2408 73.2272L70.1953 73.2293C68.9762 73.2847 64.8346 72.8923 64.8346 74.897C64.8346 75.4285 64.9464 75.9402 64.5368 76.334C63.9746 76.8745 62.9451 76.8403 62.2138 76.8403C60.7385 76.8403 58.2649 76.7602 57.8657 74.964C57.4955 73.2979 56.4205 73.3558 54.9471 73.3558C53.9357 73.3558 53.1144 73.3993 52.1477 73.6313C51.1504 73.8706 50.1842 74.2576 49.1621 74.428C48.4225 74.5512 45.4022 75.0115 45.4022 73.7281C45.4022 72.812 45.9212 71.6822 45.0671 71.018C44.5182 70.5911 43.0625 71.076 42.5431 71.286C41.6867 71.6322 40.9395 72.1102 40.0713 72.4177C39.2055 72.7243 37.7799 72.6809 36.8549 72.5219C36.0291 72.38 35.2782 71.8961 34.4649 71.6881Z" fill="#47613B"/>
<path d="M54.9784 59.1506C56.904 60.3618 63.3036 59.6287 65.5354 59.8298C66.9083 59.8298 67.7525 60.208 68.8924 60.6633C69.8669 61.0525 71.1026 60.9874 72.2936 60.9412C73.0774 60.9107 73.4409 59.8298 74.8777 59.8298H78.2568H83.7341C85.7639 59.8298 86.1969 59.0723 87.0911 57.8848C87.979 56.7057 89.1516 57.5556 89.9843 58.0083C92.8506 59.5664 95.5297 60.9412 99.2604 60.9412C102.111 60.9412 102.507 60.3278 102.507 58.4405C102.507 57.6448 102.309 56.0899 104.186 56.8969C106.263 57.7905 107.393 58.1626 109.839 58.1626C110.661 58.1626 115.595 57.6163 113.793 56.3566C112.826 55.6811 111.754 55.4335 111.341 54.3962C111.157 53.9316 111.298 53.0885 112.048 53.7787C113.393 55.0157 114.821 55.6894 117.084 55.2606C118.861 54.9238 122.858 54.9423 122.362 53.0378C121.984 51.584 120.376 50.3867 121.412 48.731C122.321 47.2797 123.58 49.0343 124.151 49.6109C125.49 50.9625 129.406 51.1693 131.395 52.0962C133.239 52.9554 138.042 55.1103 138.993 52.4512C139.844 50.0703 136.574 48.6314 135.592 46.7089C135.119 45.7833 135.901 44.8939 135.901 43.9921C135.901 43.0444 135.776 42.4782 136.519 41.723C139.572 38.6195 133.937 35.9874 130.733 34.2672C129.657 33.6898 124.458 32.0058 127.155 30.7941C128.533 30.1748 128.858 29.2462 127.376 28.5867C125.151 27.5971 119.379 27.1213 120.882 24.2028C121.427 23.1456 121.987 22.8276 121.987 21.594C121.987 20.4924 121.049 19.541 119.403 19.541C117.929 19.541 116.214 20.2026 114.654 20.3128C112.641 20.4551 110.58 20.3746 108.559 20.3746C106.97 20.3746 104.306 20.5769 103.302 19.6027C102.08 18.4163 101.913 17.2935 100.32 16.0833C98.7766 14.9104 96.4038 13.3979 94.0702 13.9222C92.457 14.2846 90.8543 14.2618 89.1893 14.2618C88.423 14.2618 88.6046 13.8152 88.3721 13.3973C87.7586 12.2949 86.6793 11.2634 85.3684 10.5108C81.2362 8.13842 75.525 9.383 73.4862 12.5329C72.5359 14.0011 71.7544 14.5396 69.5108 14.5396C68.8216 14.5396 67.9986 14.4503 67.3243 14.5551C66.5204 14.6799 66.5312 15.5315 65.712 15.6356C62.4704 16.0475 58.1821 14.8324 55.1992 15.9906C53.8206 16.526 53.8411 17.3005 53.2998 18.1517C52.9295 18.7341 53.686 21.2523 52.5931 21.4705C51.149 21.7589 49.373 21.3418 47.8888 21.5014C44.7379 21.8402 46.7388 25.1782 43.7588 25.0981C42.8497 25.0736 42.5571 24.3583 41.6606 24.2799C40.9134 24.2147 39.8436 24.1642 39.0987 24.2799C37.5138 24.5261 37.3097 25.703 37.3097 26.6263C37.3097 28.0041 36.5004 28.4323 34.5269 28.4323C33.6778 28.4323 33.064 28.1099 32.2962 27.8766C31.0088 27.4854 29.6048 27.5987 28.2324 27.5987C23.9439 27.5987 25.5364 30.4892 27.4594 31.9827C28.4554 32.7561 30.329 34.4516 30.5294 35.5021C30.867 37.2718 28.9259 35.7816 28.2104 36.9068C27.3876 38.2006 28.3492 41.0068 30.1539 41.7075C31.8999 42.3855 36.2923 43.3715 35.6974 45.2424C35.3777 46.2481 32.2346 44.9841 33.1355 46.3693C33.8318 47.44 34.7137 48.4884 36.1171 49.2096C37.925 50.1387 42.7252 50.2297 42.8753 52.3277C42.9704 53.6568 42.5928 55.5849 43.9134 56.6499C45.299 57.7673 48.2446 58.391 50.2078 57.6069C51.1015 57.25 52.44 56.6804 53.609 57.113C53.935 57.2336 54.5618 57.9273 54.7133 58.1626C54.8832 58.4265 54.6541 58.9466 54.9784 59.1506Z" fill="#415733"/>
<path d="M31.5918 38.642C31.1937 38.167 31.6347 37.4281 31.8035 36.9457C31.8035 36.7112 31.2808 35.843 31.0581 35.7434C30.8642 35.6566 30.7278 35.5058 30.5243 35.4469C30.3338 35.3918 30.236 35.2288 30.0458 35.1834C29.799 35.1245 29.5992 35.0712 29.3832 34.9446C28.7052 34.5471 28.1446 34.0501 27.4967 33.627C26.6557 33.0779 25.4473 32.8607 25.5089 31.7577C25.5197 31.5651 25.8826 31.499 26.0335 31.4613C27.0508 31.2072 28.1051 31.1202 29.0979 30.7778C30.0053 30.4649 30.4731 30.1607 30.7912 29.3944C31.1103 28.6255 31.6096 27.8434 32.4845 27.4756C33.4815 27.0566 34.6317 27.0143 35.6685 26.6769C36.5656 26.385 37.2698 26.0691 37.2698 25.1452C37.2698 24.1414 38.7264 23.51 39.6901 23.2924C41.98 22.7751 44.4128 22.9183 46.7024 22.3618C47.0281 22.2827 47.6786 22.2114 47.5307 21.7813C47.4594 21.5739 47.1965 21.4789 47.1395 21.2666C47.0706 21.0097 47.1773 20.723 47.3512 20.5214C48.504 19.1841 50.3483 18.3281 51.7592 17.2233C52.3371 16.7709 53.2837 16.1679 52.8773 15.4076C52.5709 14.8342 52.2389 14.2725 52.5138 13.6165C52.6332 13.3316 52.917 13.0385 53.2178 12.896C53.5369 12.7448 53.8866 12.7848 54.2393 12.7848H58.4173C59.4081 12.7848 60.4037 12.8088 61.3943 12.7807C61.779 12.7697 62.0879 12.7365 62.3652 12.4883C62.9158 11.9956 63.4257 11.5617 64.1735 11.3108C65.3804 10.9058 66.598 10.88 67.8729 10.8167C69.4398 10.7388 70.8877 10.5032 72.419 10.2649C72.6283 10.2324 72.6155 10.1653 72.6813 10.0055C72.808 9.69767 73.1704 9.45133 73.4492 9.26177L73.4635 9.25206C74.4178 8.60305 75.784 7.81921 77.0295 7.81921C77.4263 7.81921 77.8306 7.79299 78.2212 7.8645C78.9141 7.99132 79.598 8.14096 80.3056 8.18565C81.0027 8.22969 81.6581 8.28653 82.3118 8.52328C82.9201 8.74361 83.2362 9.25176 83.7336 9.59792C84.1912 9.9164 84.6234 9.82026 85.2152 9.82026H90.0649C91.1201 9.82026 92.1755 9.81205 93.2306 9.82026C94.3374 9.82887 95.7647 9.84377 96.7368 10.4132C97.8997 11.0943 98.2318 12.6361 98.4577 13.773C98.5176 14.0748 98.459 14.4741 98.7246 14.7117C98.9507 14.9141 99.2793 15.1124 99.5712 15.2305C100.029 15.4157 100.455 15.8814 100.841 16.161C101.653 16.749 102.544 17.287 103.464 17.7339C105.749 18.8444 108.786 18.809 111.235 18.1168C112.01 17.8979 112.723 17.6021 113.545 17.6021C115.008 17.6021 116.473 17.5818 117.935 17.6392C118.593 17.665 119.246 17.6762 119.904 17.6762C120.137 17.6762 120.478 17.6212 120.709 17.6804C120.955 17.7431 120.513 18.1289 120.461 18.158C120.176 18.3158 119.681 18.5771 119.605 18.8991C119.557 19.1054 119.596 19.355 119.596 19.5661C119.596 20.0446 119.434 20.108 119.214 20.5008C118.996 20.8913 118.531 21.1466 118.317 21.5301C118.169 21.7941 118.188 22.1395 118.188 22.4236C118.188 22.9573 118.145 23.4574 118.574 23.8729C119.003 24.2867 119.472 24.7692 120.052 25.0134C120.512 25.2072 120.779 25.6351 120.64 26.0881C120.504 26.5343 119.183 28.5391 120.111 28.5668C120.321 28.573 120.956 28.4734 121.087 28.6779C121.247 28.9287 121.458 29.0868 121.71 29.2757L121.731 29.2914C122.476 29.8498 123.193 30.389 123.884 31.0001C124.492 31.537 125.261 31.7313 125.909 32.2024C126.458 32.6013 126.813 33.1563 126.949 33.7753C127.158 34.7326 121.824 35.3349 122.679 36.2786C123.027 36.6624 123.756 36.9199 124.206 37.1845C124.939 37.6146 125.585 38.0202 126.084 38.675C126.562 39.3037 126.834 40.2665 126.121 40.8407C125.66 41.2114 124.867 41.5332 124.667 42.1006C124.506 42.5566 124.956 42.7476 125.338 42.9324C126.815 43.6448 128.732 44.098 129.765 45.3863C130.168 45.8892 130.208 47.1242 129.728 47.5932C129.112 48.1943 127.539 47.9229 126.783 47.7497C125.68 47.497 124.933 47.1771 124.179 46.4568C123.151 45.4761 122.047 44.646 120.829 43.8464C119.395 42.9052 117.549 42.2986 115.768 42.8171C115.27 42.9619 115.277 43.2038 115.289 43.5984L115.289 43.6158C115.313 44.4632 116.25 44.9707 116.886 45.4645C117.011 45.5616 117.976 46.3238 117.525 46.5515C116.909 46.8631 116.117 46.95 115.432 47.025C114.014 47.1804 112.592 47.2993 111.176 47.4656C110.468 47.5487 109.717 47.58 109.054 47.8403C108.68 47.9872 108.344 48.2369 108.001 48.4332C107.337 48.8134 106.16 49.2568 105.82 49.9484C105.621 50.3522 105.765 51.0331 105.765 51.4677C105.765 52.4628 105.937 53.6414 104.982 54.3581C104.238 54.917 103.229 55.1078 102.291 55.2063C100.622 55.3815 98.8685 55.4035 97.2015 55.1981C96.0185 55.0523 94.8684 54.8266 93.8104 54.3211C93.0877 53.9757 92.5952 53.5161 91.9837 53.0447C90.9078 52.2153 89.7109 52.1388 88.3487 52.1388C87.65 52.1388 87.2989 52.0051 87.5894 52.6906C87.8657 53.3424 88.093 53.9498 88.183 54.6546L88.1856 54.6747C88.2677 55.3168 88.3892 56.2673 87.8609 56.7956C87.4464 57.2101 86.8732 57.1785 86.3011 57.1785C85.1001 57.1785 83.904 57.1188 82.7075 57.0262C80.9554 56.8906 78.7272 56.8645 77.3194 55.7663C76.7198 55.2985 76.5374 54.6315 76.4451 53.9505C76.3527 53.2679 76.4117 52.2563 75.5893 51.8836C74.2284 51.2668 72.7175 50.953 71.1997 50.953C70.5966 50.953 70.4225 50.9573 70.399 51.5871C70.3594 52.65 70.4826 53.7605 69.9941 54.7657C69.3255 56.1419 67.7323 56.7196 66.1567 56.7339C63.7542 56.7556 61.0424 56.6384 58.767 55.8527C58.5028 55.7615 57.5033 55.4662 57.4786 55.1281C57.4616 54.8942 57.6196 54.6479 57.7455 54.4528C58.2717 53.6378 56.4891 54.3969 56.2547 53.9011C56.0675 53.5053 56.4096 52.9863 56.6504 52.6906C56.8754 52.4142 57.4514 51.9037 57.4786 51.5624C57.5317 50.8971 56.5151 50.2319 55.8038 50.4672C53.6831 51.1685 51.6478 52.7645 49.2791 52.2294C48.2111 51.9882 47.2354 51.4922 46.1503 51.2824C45.2091 51.1005 43.9536 51.1462 43.1134 50.6854C41.9794 50.0634 43.3558 48.3884 43.9002 47.8362C44.2989 47.4319 44.6678 47.0177 45.0552 46.6133C45.3621 46.2928 45.7513 45.9088 45.796 45.4687C45.8086 45.3443 45.8982 44.6851 45.7131 44.6575C45.0358 44.5565 44.0877 44.8217 43.4493 44.9828C41.8895 45.3765 40.5417 45.5264 38.9401 45.1681C38.0113 44.9603 39.3653 43.5584 39.46 43.1712C39.7828 41.8505 37.5436 42.2077 36.6578 42.2077C35.4082 42.2077 34.2343 41.9156 33.0412 41.6065C32.4639 41.457 31.3893 41.1304 31.3893 40.466C31.3893 39.9561 31.8035 39.5419 31.8035 39.0332C31.8035 38.8557 31.7103 38.7834 31.5918 38.642Z" fill="#577942"/>
<path d="M48.3417 19.3212C49.8512 17.9058 49.8619 17.3801 51.181 15.7457C52.5612 15.0393 56.9315 15.9147 57.0618 13.8345C57.1401 12.5837 58.2346 11.8979 59.2017 11.4909C60.5563 10.9208 62.4965 11.8219 63.7632 12.1945C65.5734 12.7269 67.5089 13.2679 69.383 13.4189C69.6687 13.4419 71.1587 13.7385 71.2666 13.339C71.5379 12.335 69.6465 12.0522 69.1056 11.6129C68.403 11.0422 70.4777 10.5477 70.615 10.5199C71.9756 10.2446 73.3114 10.3787 74.6718 10.2536C74.8679 10.2356 75.6553 10.3726 75.8045 10.2293C75.9441 10.0952 75.6975 9.83389 75.7521 9.66888C75.8491 9.37528 77.1269 10.3261 77.2133 10.4202C78.0783 11.362 79.0553 12.6895 80.1199 13.3585C81.1772 14.0229 82.8578 13.961 83.9984 13.5721C84.8813 13.2711 83.4736 12.4268 83.5065 11.6488C83.5302 11.0871 82.6429 10.8776 83.2983 9.48476C84.1878 8.05134 85.4368 8.95689 85.6501 8.97025C86.6692 9.03409 85.2321 11.7114 86.2358 11.4985C87.273 11.2785 88.1435 11.0667 89.205 11.2887C91.2067 11.7073 93.2382 12.3179 95.105 13.1976C96.3728 13.7951 95.1679 14.4578 94.407 14.7739C93.9573 14.9608 92.9439 15.2771 94.027 15.3585C96.6569 15.5564 100.373 15.3797 102.269 17.7221C103.122 18.7765 103.406 20.2774 104.423 21.1704C105.095 21.7606 106.523 21.604 107.352 21.5958C108.048 21.5889 108.743 21.0364 109.359 20.7392C110.594 20.1429 111.978 19.4339 113.343 19.3688C114.643 19.3067 116.043 19.5846 117.277 19.9818C118.168 20.2682 119.024 20.362 119.668 21.1578C119.789 21.3069 119.762 21.6141 119.568 21.6793C118.588 22.0095 117.567 22.1922 116.552 22.3114C115.828 22.3965 115.401 22.5827 115.367 23.3953C115.336 24.1237 115.654 24.8203 116.341 24.9371C117.273 25.0956 119.979 25.2187 119.892 26.6183C119.856 27.1802 119.241 27.3274 119.202 27.9532C119.11 29.4189 120.162 30.5269 120.911 31.6228C121.97 33.1726 123.23 34.361 123.798 36.2825C123.95 36.7993 123.926 36.7114 123.596 36.3798C123.09 35.8696 122.542 35.3952 121.989 34.9451C121.827 34.813 120.333 33.4494 120.264 34.2139C120.231 34.5811 120.252 34.9678 120.188 35.3306C120.106 35.7868 119.19 35.5394 118.916 35.5222C118.302 35.4838 117.84 35.3051 117.271 35.0852L117.261 35.0813C116.336 34.7242 115.278 34.5041 114.482 33.859C113.422 32.9995 114.211 32.0403 113.653 30.9702C113.186 30.0736 112.083 29.3935 111.255 28.9507C110.787 28.7006 111.652 29.6713 111.729 29.8674C112.795 32.5753 106.631 30.5789 105.867 30.1453C105.28 29.812 104.803 28.773 104.497 28.1536C104.287 27.728 103.996 27.259 103.673 26.9071C102.758 25.9097 101.936 24.8021 100.968 23.8641C99.9125 22.8413 98.476 21.8903 97.0338 21.7484C96.697 21.7153 96.1315 21.5449 96.1822 21.9076C96.3226 22.913 96.908 24.3277 96.4313 25.3465C96.1509 25.9459 94.2055 23.6221 94.0077 23.4061C91.9933 21.2073 88.7872 20.2066 85.9933 19.8839C85.3191 19.806 83.2436 19.2716 83.8535 20.6148C83.9749 20.8824 85.9112 23.8439 85.1493 23.8994C83.2239 24.0396 81.3145 23.4566 79.3776 23.8091C78.1104 24.0396 79.2801 24.2833 79.27 24.9898C79.2612 25.6084 78.0473 25.9476 77.645 26.2075C76.6455 26.8534 75.7981 27.7461 74.7939 28.4039C72.9996 29.5793 69.8712 29.249 67.974 28.7097C67.6789 28.6259 65.6511 27.8071 66.4088 27.1456C66.7844 26.8178 67.4796 26.6516 67.9132 26.4555C68.6346 26.1292 69.3705 25.8452 70.0927 25.5218C70.1777 25.4838 72.4161 24.2209 71.9303 24.1342C70.6212 23.9005 69.2015 24.1116 67.871 24.0119C67.6514 23.9954 65.1533 23.8498 65.9351 23.0989C67.0583 22.02 68.6976 21.8253 69.8873 20.8468C70.1092 20.6643 69.7683 20.4083 69.6237 20.3245C68.6954 19.7863 67.4453 19.7418 66.417 19.7058C64.7972 19.6491 63.3582 19.8801 61.8853 20.6754C61.1784 21.0571 60.5563 21.5862 59.864 21.9855C58.9326 22.5228 58.0326 23.0697 57.0375 23.4651C56.4032 23.7172 54.1377 24.6339 53.5489 23.9063C53.2564 23.545 53.7074 22.4548 52.9467 22.5565C52.3522 22.6359 51.6152 23.2257 51.2882 23.772C50.954 24.3302 50.3378 24.6475 49.867 25.0684C49.2771 25.5959 48.6929 25.7133 47.9643 25.6676C47.4705 25.6367 47.5018 24.9028 47.7366 24.4658C48.4817 23.0794 50.0979 22.86 51.1487 21.8061C51.5639 21.3897 51.7726 20.4806 50.9936 20.8434C50.312 21.1609 49.6044 21.3884 48.8974 21.6284C48.213 21.8607 47.5873 22.2718 46.856 22.2922C45.7516 22.323 48.1126 19.536 48.3417 19.3212Z" fill="#7E9F54"/>
<path d="M38.9049 29.3251C39.9104 28.852 40.7165 28.1355 41.87 28.0943C42.0203 27.3428 41.8246 26.9307 41.0246 26.6398C40.4689 26.4377 39.8928 26.3761 39.3836 26.0306C39.0989 25.8374 38.6994 25.1358 39.0293 24.806C39.2858 24.5494 40.56 24.7163 40.863 24.7438C41.5997 24.8108 42.2306 25.1852 42.9889 25.1852C43.5869 25.1852 47.4519 23.361 47.5764 24.0663C47.6122 24.2689 47.8002 24.2997 47.8002 24.5387V25.2101C47.8002 25.744 47.2419 26.0341 46.9672 26.4657C46.5422 27.1337 48.0659 26.861 48.3223 26.8635C48.759 26.8678 50.1099 26.7133 50.4607 27.0003C50.6338 27.1419 50.2831 27.3324 50.2058 27.3608C49.1926 27.7341 48.1437 28.052 47.135 28.4362C46.6586 28.6177 44.9769 29.0092 45.0029 29.6856C45.029 30.3625 46.228 30.8882 45.2764 31.364C44.6931 31.6557 43.7027 31.8254 43.4924 32.5823C43.3633 33.0472 43.9797 34.3019 43.4862 34.5839C43.1726 34.7631 43.1286 34.9196 42.7092 34.9196C42.328 34.9196 41.8634 34.9962 41.4908 34.9134C41.2832 34.8672 41.483 34.2056 41.5095 34.0866C41.5583 33.867 41.6853 32.9056 41.3541 32.9056C40.6176 32.9056 40.0417 32.9266 39.4084 33.3531C38.5172 33.9534 38.5041 35.513 37.1147 34.6896C36.8401 34.5269 35.7599 33.8318 36.2134 33.3531C36.5513 32.9964 36.944 32.6558 37.3447 32.371C37.6599 32.147 38.1529 31.9231 38.2771 31.5194C38.5123 30.7551 37.1756 30.7698 37.5312 30.2202C37.8014 29.8026 38.472 29.5289 38.9049 29.3251Z" fill="#47613B"/>
<path d="M57.6792 68.649C60.1053 68.3362 62.0506 67.8627 64.8342 67.8354C65.1969 67.3387 64.7246 67.0663 62.7942 66.874C61.4533 66.7404 60.0629 66.6997 58.8342 66.4713C58.1472 66.3436 57.1833 65.8799 57.9792 65.6619C58.5983 65.4923 61.6729 65.6026 62.4042 65.6208C64.1819 65.6651 65.7043 65.9125 67.5342 65.9125C68.9773 65.9125 78.304 64.7067 78.6043 65.1729C78.6906 65.3069 79.1443 65.3272 79.1443 65.4852V65.929C79.1443 66.2819 77.7971 66.4736 77.1343 66.7589C76.1086 67.2004 79.7856 67.0203 80.4044 67.0219C81.4581 67.0247 84.7179 66.9226 85.5644 67.1123C85.9821 67.2059 85.1359 67.3318 84.9494 67.3506C82.5044 67.5973 79.9733 67.8074 77.5393 68.0614C76.3897 68.1814 72.3315 68.4401 72.3943 68.8873C72.4571 69.3347 75.3505 69.6822 73.0543 69.9967C71.6465 70.1895 69.2567 70.3016 68.7493 70.802C68.4377 71.1092 69.9252 71.9386 68.7343 72.125C67.9776 72.2435 67.8714 72.3469 66.8592 72.3469C65.9395 72.3469 64.8184 72.3975 63.9192 72.3428C63.4181 72.3123 63.9004 71.8749 63.9642 71.7963C64.082 71.6511 64.3886 71.0156 63.5892 71.0156C61.8119 71.0156 60.4224 71.0296 58.8942 71.3115C56.7435 71.7082 56.712 72.7391 53.3591 72.1949C52.6965 72.0873 50.0899 71.6279 51.1841 71.3115C51.9996 71.0757 52.9472 70.8505 53.9141 70.6623C54.6747 70.5142 55.8644 70.3662 56.1641 70.0994C56.7317 69.5942 53.506 69.6039 54.3641 69.2406C55.0162 68.9646 56.6344 68.7837 57.6792 68.649Z" fill="#3A4F30"/>
<path d="M54.4266 37.4682C53.2735 37.1134 54.7785 36.1233 55.2968 35.8147C55.6282 35.9252 56.3947 36.0869 56.4157 36.4861C56.4345 36.8434 56.5608 37.4931 56.0801 37.4931C55.5711 37.4931 54.907 37.616 54.4266 37.4682Z" fill="#47613B"/>
<path d="M83.2693 28.2559C84.5364 27.4556 85.5652 26.583 86.9616 26.0803C86.5665 25.9486 86.1636 25.7975 85.9049 25.4649C85.6089 25.0843 86.1198 24.7963 86.3462 24.5698C86.8946 24.0215 87.8651 24.1782 88.5654 24.1782C89.2184 24.1782 89.1994 24.3995 89.1994 24.9614C89.1994 25.289 89.0763 25.6328 89.4792 25.6328H90.7099C91.6727 25.6328 92.5546 25.6748 93.0596 26.5838C93.3711 27.1444 92.3904 26.9754 92.1086 26.9754C91.2672 26.9754 89.9774 26.7393 89.1994 27.0873C88.1018 27.5784 90.3414 28.3275 89.1994 28.6538C87.7278 29.0742 86.4161 29.1013 84.873 29.1013C84.7649 29.1013 82.3348 28.9986 82.6228 28.6786C82.7598 28.5264 83.1016 28.3618 83.2693 28.2559Z" fill="#47613B"/>
<path d="M101.633 63.6863C99.6856 65.5266 98.2035 67.3208 95.8881 68.8384C96.6653 68.7777 97.4655 68.7385 98.0842 69.0304C98.7922 69.3645 97.9914 70.0599 97.6805 70.5011C96.9278 71.5694 95.093 71.9429 93.8194 72.3646C92.6317 72.7578 92.5676 72.4484 92.3172 71.692C92.1712 71.251 92.2419 70.7142 91.5093 70.9568L89.271 71.6979C87.5202 72.2776 85.8975 72.7521 84.574 71.8326C83.7578 71.2655 85.6165 70.9024 86.129 70.7327C87.659 70.2261 90.11 69.7673 91.3696 68.8303C93.147 67.5083 88.7401 67.8485 90.6714 66.7217C93.1603 65.2696 95.5336 64.4432 98.3399 63.514C98.5365 63.4489 103.002 62.1239 102.621 62.728C102.439 63.0155 101.891 63.4428 101.633 63.6863Z" fill="#3A4F30"/>
<path d="M21.7439 47.9361C21.4638 47.3508 21.1183 46.8715 20.842 46.2783C20.7086 46.2211 19.772 46.8084 19.5924 47.006C19.2584 47.3736 19.2205 47.5085 18.9492 47.3921C18.8256 47.339 18.871 46.796 18.8796 46.573C18.8955 46.1603 19.0618 45.5748 19.2583 45.1171C19.5289 44.4867 19.5856 45.1372 19.7077 45.1896C19.8814 45.2641 19.8948 45.208 20.1091 45.0007C20.2402 44.8739 20.3677 44.7963 20.4988 44.6731C20.6508 44.5303 20.9135 44.1546 21.0575 44.0969C21.2127 44.0348 21.188 44.4188 21.2348 44.5476C21.4527 45.1461 21.8436 45.5729 22.1399 46.0529C22.4811 46.6056 22.7988 47.1915 23.0758 47.8457C23.1487 48.0177 23.364 48.3629 23.2036 48.7366C22.9615 49.3008 22.6518 49.276 22.3999 49.8629C21.8744 51.0872 22.8426 51.5947 23.1033 52.004C23.4213 52.5034 23.8117 53.4029 23.4037 54.6142C23.323 54.8537 22.8591 55.9157 23.0529 55.7009C23.3868 55.3309 23.6321 55.4212 23.853 55.516C24.6 55.8366 24.7037 57.337 25.1897 58.1095C25.4398 58.507 26.1721 58.9331 26.7267 58.4949C26.8923 58.3641 26.9733 58.2048 27.1169 58.0003C27.3858 57.6177 27.628 57.6125 27.8813 57.5325C28.5013 57.3365 28.9096 57.4455 29.3876 57.6507C29.8381 57.844 29.9881 58.5102 30.2244 59.0665C30.3501 59.3626 30.3537 59.8108 30.4491 60.1461C30.5325 60.4394 30.7359 60.4765 30.9057 60.6163C31.92 61.451 33.0118 62.1374 34.2447 62.4974C34.6387 62.6125 35.1579 62.5534 35.5791 61.5721C35.7923 61.0751 36.179 60.465 36.4615 60.5664C37.3453 60.8836 38.1237 61.5886 38.4089 62.9672C38.5933 63.8586 38.8827 64.2645 39.4588 64.5013C39.7034 64.6018 40.1297 65.0251 40.4551 64.2668C40.7601 63.5562 41.0796 63.5671 41.258 63.8958C41.4044 64.1655 41.5171 64.4957 41.7402 64.6311C42.2502 64.9406 43.0975 64.7022 43.7363 64.6518C44.3287 64.6051 45.1676 64.6969 45.9014 64.0161C46.2163 63.7239 46.5143 63.2743 46.8251 62.9144C47.2222 62.4544 47.5913 62.2305 47.9518 62.1273C48.3021 62.027 48.5706 62.1779 48.8699 62.2271C49.2271 62.2857 49.6135 62.2658 49.9868 62.2784C50.1703 62.2846 51.1873 62.5568 51.3942 62.0398C51.5353 61.6875 51.5982 61.3157 51.767 60.9224C52.2847 59.7163 52.9979 58.9447 53.6187 58.8747C53.9852 58.8334 54.28 58.9826 54.6412 58.9525C54.8393 58.9359 55.0511 58.8475 55.2358 58.8732C55.5699 58.9199 56.0385 58.7096 56.4373 58.5306L56.45 58.525C57.1531 58.2095 58.0462 58.0482 58.3274 58.8291C58.5156 59.3517 58.4915 59.7968 58.4278 60.5509C58.3991 60.8904 58.5252 61.0199 58.6027 61.2212C58.668 61.3905 58.8693 61.406 58.9967 61.4505C59.3856 61.5864 59.8247 61.5651 60.2085 61.7298C60.5924 61.8946 60.8517 62.0901 60.9557 62.7461C61.0087 63.0805 60.9284 63.7041 60.9699 64.0946C61.0821 63.9991 61.1957 63.9012 61.2572 63.9924C61.2927 64.0451 61.1143 64.4766 61.0423 64.3616C61.004 64.3003 60.9819 64.2072 60.9699 64.0946C60.9155 64.141 60.8614 64.1867 60.8138 64.21C60.2565 64.4827 59.8407 64.1 59.44 63.928L58.3931 63.4787C58.1488 63.3739 58.0113 63.0983 57.7841 62.9766C57.6931 62.9278 57.7266 62.6711 57.7237 62.5092C57.7146 62.0088 57.6566 61.5925 57.5731 61.1739C57.4667 60.6398 57.4016 60.4654 57.0259 60.4241C56.3012 60.3443 55.3224 60.7363 54.4419 61.2411C53.8592 61.5753 52.944 62.1199 53.0572 63.1682C53.1163 63.7152 53.2722 65.755 52.5629 65.1631C52.4209 65.0445 52.2175 64.5964 52.3729 65.1083C52.4756 65.4466 52.6862 65.8998 52.4547 66.5278C52.085 67.5301 51.3745 68.0505 50.9633 67.874C50.504 67.6769 50.2972 67.3403 50.2171 66.5238C50.1544 65.8845 50.1678 65.4343 49.701 65.4596C48.7657 65.5104 47.6214 66.3955 46.7333 68.1451C46.3118 68.9755 45.7253 70.2152 45.3863 69.6871C45.055 69.1708 44.9337 68.3728 44.4845 68.036C44.0865 67.7377 43.6026 67.604 43.1564 67.4125C43.0005 67.3456 42.8268 67.1796 42.6045 67.3027C42.1037 67.5798 42.2638 69.7353 41.9603 70.31C41.5825 71.0254 40.9019 70.4175 40.6847 70.3243C40.2778 70.1496 39.9448 69.9731 39.7322 69.434C39.5216 68.8999 39.0409 68.7441 38.7912 68.2543C38.4718 67.6278 38.2441 66.7671 38.2108 65.7781C38.1813 64.8979 38.1326 64.3995 37.6263 64.1963C37.2553 64.0474 36.5652 63.9131 36.0207 64.5304C35.6882 64.9074 35.562 65.2189 35.3375 65.742C35.1432 66.1948 34.9185 66.4162 34.7316 66.3246C34.2992 66.1128 33.9412 65.7446 33.4914 65.5516C33.1057 65.386 32.7054 65.2585 32.2932 65.1577C32.2384 65.1443 31.9245 64.9959 31.8416 65.111C31.7821 65.1938 31.9592 66.1538 31.9405 66.2904C31.9039 66.5575 31.7097 67.0395 31.5616 67.3115C31.2232 67.9331 30.3593 67.2231 30.1466 67.1256C29.7765 66.9558 29.4928 66.4615 29.2687 66.0198C28.904 65.301 29.3305 63.8229 28.9084 63.1967C28.5167 62.6154 27.9681 62.2784 27.3828 62.0938C27.2747 62.0597 26.8092 61.8944 26.7416 62.4405C26.6893 62.8628 26.688 63.2785 26.6668 63.6791C26.6404 64.1754 26.6693 64.3894 26.285 64.2576C25.5245 63.9968 24.5641 63.7295 24.164 62.7521C24.0684 62.5186 24.1292 62.3768 24.2751 62.0372L24.2823 62.0204C24.5865 61.3117 23.6455 61.2053 23.4468 61.12C22.9778 60.9188 22.5293 60.6044 21.995 60.5705C21.4233 60.5342 20.9051 60.5107 20.402 60.2948C20.229 60.2205 19.025 60.0312 19.6586 59.1798C20.1999 58.4526 20.2693 58.0527 20.5696 57.23C20.6434 57.0279 20.7445 56.538 20.9011 56.4092C21.1172 56.2317 21.4986 55.8137 21.6751 55.5042C21.9112 55.0903 21.8426 54.9599 21.7406 54.7297C21.4502 54.0741 20.9454 53.7009 20.8499 52.7557C20.7805 52.0699 21.4354 50.8661 21.7842 50.0535C21.9476 49.6728 22.0264 49.4835 22.0673 49.1383C22.1279 48.6271 21.8762 48.2127 21.7439 47.9361Z" fill="#3A4F30"/>
<path d="M103.97 61.2417C103.326 61.1597 102.736 61.1901 102.088 61.1006C101.967 61.1817 101.953 62.2871 102.022 62.5451C102.15 63.0251 102.242 63.1301 101.997 63.2949C101.886 63.37 101.454 63.0374 101.271 62.9093C100.933 62.6721 100.532 62.2149 100.253 61.8016C99.8705 61.2325 100.448 61.5375 100.558 61.4634C100.715 61.3579 100.675 61.3161 100.617 61.0237C100.581 60.8448 100.585 60.6955 100.553 60.5186C100.515 60.3135 100.342 59.8891 100.372 59.7367C100.404 59.5726 100.713 59.8017 100.847 59.8321C101.468 59.9735 102.038 59.8765 102.602 59.8878C103.252 59.9008 103.916 59.9516 104.616 60.0735C104.8 60.1056 105.207 60.1119 105.434 60.4492C105.777 60.9586 105.588 61.2053 105.945 61.7353C106.688 62.8406 107.64 62.3022 108.125 62.3052C108.717 62.3088 109.684 62.4684 110.481 63.468C110.638 63.6657 111.279 64.6313 111.204 64.352C111.074 63.8708 111.283 63.7137 111.482 63.5795C112.157 63.1256 113.474 63.852 114.386 63.8625C114.856 63.8679 115.611 63.4837 115.544 62.7801C115.523 62.57 115.433 62.4155 115.34 62.184C115.164 61.7507 115.291 61.5443 115.361 61.2881C115.532 60.6609 115.845 60.3769 116.277 60.0865C116.684 59.8128 117.325 60.048 117.92 60.1511C118.237 60.206 118.616 60.446 118.949 60.5477C119.241 60.6366 119.382 60.4859 119.592 60.4189C120.843 60.0193 122.012 59.4741 122.983 58.6334C123.293 58.3648 123.525 57.8964 122.929 57.0105C122.627 56.5618 122.324 55.9061 122.562 55.7237C123.308 55.1531 124.323 54.8814 125.636 55.3892C126.485 55.7176 126.983 55.6945 127.494 55.3388C127.711 55.1878 128.298 55.0592 127.837 54.3745C127.405 53.733 127.588 53.4704 127.961 53.4987C128.267 53.522 128.605 53.6063 128.84 53.4923C129.377 53.2315 129.636 52.3904 129.94 51.8263C130.222 51.3032 130.754 50.6481 130.579 49.6624C130.505 49.2394 130.289 48.7452 130.155 48.289C129.983 47.7059 129.995 47.2743 130.104 46.9154C130.21 46.5668 130.482 46.4229 130.686 46.1981C130.929 45.9298 131.122 45.5943 131.335 45.2875C131.439 45.1367 132.219 44.4298 131.897 43.9755C131.678 43.666 131.399 43.4116 131.16 43.0564C130.428 41.9675 130.166 40.9499 130.444 40.3903C130.608 40.0599 130.893 39.8932 131.064 39.5733C131.157 39.3979 131.198 39.172 131.319 39.0308C131.54 38.7753 131.617 38.2676 131.683 37.8354L131.685 37.8217C131.801 37.0599 132.15 36.222 132.959 36.4091C133.5 36.5344 133.861 36.7959 134.46 37.2584C134.73 37.4666 134.907 37.4308 135.118 37.4748C135.296 37.5118 135.418 37.351 135.524 37.2681C135.849 37.015 136.069 36.6346 136.416 36.4014C136.763 36.1681 137.067 36.0563 137.675 36.3246C137.985 36.4613 138.465 36.867 138.816 37.0438C138.796 36.8978 138.776 36.7492 138.886 36.747C138.949 36.7457 139.215 37.1297 139.079 37.1278C139.007 37.1267 138.917 37.0948 138.816 37.0438C138.825 37.1147 138.834 37.1849 138.828 37.2376C138.755 37.8537 138.208 37.9956 137.846 38.239L136.901 38.875C136.681 39.0234 136.375 38.9896 136.149 39.1145C136.059 39.1645 135.861 38.9971 135.724 38.9118C135.298 38.6481 134.917 38.4711 134.52 38.3143C134.013 38.1142 133.832 38.0742 133.593 38.3675C133.133 38.9332 132.932 39.9681 132.879 40.9817C132.843 41.6525 132.805 42.7168 133.747 43.1901C134.239 43.437 136.037 44.412 135.155 44.6871C134.979 44.7422 134.492 44.6701 135.006 44.817C135.346 44.9142 135.841 44.9829 136.243 45.518C136.885 46.372 136.937 47.2512 136.566 47.501C136.151 47.7801 135.756 47.7713 135.027 47.3959C134.455 47.102 134.084 46.8466 133.853 47.2525C133.388 48.066 133.511 49.5074 134.5 51.2023C134.969 52.0066 135.693 53.1717 135.065 53.1701C134.452 53.1686 133.715 52.8378 133.189 53.0326C132.722 53.2053 132.348 53.5394 131.945 53.8104C131.804 53.9052 131.571 53.9611 131.553 54.2147C131.515 54.7857 133.413 55.82 133.731 56.3865C134.127 57.0919 133.247 57.3341 133.051 57.4661C132.684 57.7133 132.355 57.8974 131.787 57.7837C131.224 57.671 130.832 57.9905 130.285 57.9347C129.586 57.8634 128.739 57.588 127.89 57.0797C127.134 56.6273 126.689 56.398 126.244 56.7132C125.918 56.9442 125.431 57.4512 125.654 58.2435C125.791 58.7272 125.984 59.0022 126.302 59.4744C126.577 59.8832 126.641 60.192 126.463 60.2995C126.05 60.5479 125.547 60.6491 125.141 60.9223C124.793 61.1567 124.468 61.4239 124.16 61.7156C124.119 61.7543 123.824 61.9377 123.876 62.0697C123.913 62.1646 124.816 62.5363 124.921 62.6261C125.125 62.8017 125.425 63.2262 125.573 63.4982C125.912 64.1195 124.847 64.4604 124.65 64.5863C124.306 64.8052 123.737 64.7755 123.245 64.7243C122.443 64.641 121.432 63.4812 120.677 63.4963C119.976 63.5103 119.396 63.7884 118.923 64.1802C118.836 64.2525 118.445 64.554 118.867 64.9069C119.193 65.1798 119.542 65.4063 119.867 65.6414C120.27 65.9327 120.465 66.0244 120.146 66.2759C119.515 66.7734 118.769 67.4354 117.731 67.2417C117.483 67.1954 117.397 67.0674 117.191 66.7607L117.18 66.7455C116.75 66.1057 116.15 66.8386 115.971 66.9594C115.547 67.2443 115.04 67.4507 114.722 67.8813C114.381 68.342 114.081 68.7646 113.626 69.0702C113.47 69.1753 112.658 70.0844 112.287 69.0903C111.969 68.2412 111.671 67.9661 111.142 67.2677C111.012 67.0961 110.656 66.7455 110.632 66.5441C110.6 66.2663 110.456 65.7192 110.292 65.403C110.072 64.9802 109.925 64.9672 109.676 64.928C108.968 64.8166 108.381 65.0384 107.535 64.6061C106.921 64.2926 106.264 63.0896 105.771 62.3559C105.54 62.0122 105.423 61.8434 105.155 61.6218C104.759 61.2937 104.274 61.2805 103.97 61.2417Z" fill="#3A4F30"/>
<path d="M34.4649 71.6881C33.4741 71.4346 32.9458 71.3542 32.2685 70.5415C31.5893 70.0887 29.9957 70.1394 29.1712 70.1394H25.1954C23.3325 70.1394 22.7533 69.6496 22.7533 67.8611C22.7533 66.6994 23.3738 65.2256 22.9916 64.0789C22.6635 63.0948 20.9035 62.6839 20.0506 62.359C18.5879 61.8018 16.9287 61.5124 15.7249 60.4232C15.177 59.9275 15.1641 59.5394 15.4419 58.8522C15.9053 57.7059 16.4995 56.4544 17.3628 55.5614C18.31 54.5815 19.1432 53.4731 20.0581 52.4566C20.3465 52.1361 20.4987 51.4465 20.274 51.042C19.7661 50.1278 18.8018 49.6121 17.9212 49.0318C17.2351 48.5795 15.5164 47.8612 15.5164 46.88C15.5164 45.4976 17.0086 44.0305 17.8989 43.0978C18.8272 42.1253 19.7142 41.02 20.5792 39.9856C21.1678 39.282 21.6686 38.7675 21.2717 37.8413C20.869 36.9019 19.7439 36.192 18.9115 35.6971C18.4614 35.4295 16.3285 34.8171 17.1544 33.9251C17.9641 33.0505 18.9321 32.5142 20.073 32.0786C21.3685 31.584 22.5044 30.1287 23.401 29.1377C24.1557 28.3036 24.6295 27.6901 24.6295 26.5839C24.6295 25.0549 24.2632 23.0058 25.0614 21.6551C25.8244 20.3638 27.4615 20.2851 28.8064 20.2851C30.976 20.2851 33.1362 20.4191 35.3062 20.4191C37.0235 20.4191 38.2894 20.2654 39.9075 19.6895C41.18 19.2365 42.643 18.6687 43.7642 17.9026C44.2682 17.5582 44.9565 17.4002 44.6725 16.6369C44.3629 15.8049 44.0874 15.1468 44.2258 14.2246C44.5103 12.328 47.1773 12.2441 48.6335 12.2441C51.0951 12.2441 53.7335 12.4968 56.1533 11.9761C57.3333 11.7222 58.8443 11.491 59.8015 10.7253C60.7453 9.97023 61.8862 9.31798 61.8862 8.03003L61.8862 7.97672C61.8859 6.91976 61.8858 6.19378 62.8988 5.60283C63.4183 5.29977 63.7652 4.78809 64.2985 4.50091C64.7608 4.25199 65.2337 4.02385 65.7057 3.7936C66.9836 3.17024 68.1995 2.69316 69.5475 2.25985C70.8082 1.85464 72.3571 2.03672 73.6574 2.06627C74.7622 2.09138 75.867 2.16264 76.9408 2.4311C78.2493 2.75822 79.0902 3.30867 80.2168 4.06908C81.5043 4.93818 82.4961 5.67345 84.0586 6.00488C84.9188 6.18736 85.7711 6.76283 86.6198 6.87599C88.0906 7.0721 89.6691 6.78033 90.9679 6.07189C93.1343 4.89022 95.2207 4.9889 97.4454 5.9751C98.7847 6.56883 100.126 7.0298 101.027 8.23105C101.483 8.83967 101.798 9.5181 102.501 9.89882C103.719 10.5585 104.817 11.038 106.216 11.038C107.049 11.038 107.86 10.9039 108.688 10.9039C109.871 10.9039 110.983 10.5169 112.135 10.3009C113.269 10.0882 114.277 10.0764 115.419 10.2339C117.098 10.4655 119.73 11.8242 119.782 13.7779C119.793 14.2056 119.568 15.2909 119.856 15.6615C120.268 16.1918 121.104 16.6451 121.71 16.8603C123.399 17.4598 127.888 18.6115 127.123 21.1935C126.734 22.5039 127.289 24.2385 128.016 25.348C128.362 25.8765 129.242 26.3049 129.766 26.6435C130.689 27.241 131.274 27.6717 131.709 28.7356C132.3 30.1793 132.409 31.8962 133.213 33.255C133.628 33.9565 134.559 35.2499 135.462 35.295C136.847 35.3643 137.788 35.2091 138.886 36.3076C140.098 37.5195 140.534 39.0016 140.554 40.6855C140.567 41.7417 140.249 43.419 140.956 44.3188C141.353 44.8242 141.898 45.2203 142.445 45.5548C143.301 46.0778 145.021 46.3627 145.237 47.5501C145.477 48.8698 144.151 49.7792 143.205 50.3049C142.342 50.7843 141.756 50.8331 142.028 51.8536C142.226 52.5958 142.766 53.0376 143.316 53.5883C144.01 54.2817 145.036 55.0957 145.907 55.5316C146.279 55.7174 146.449 56.2674 146.786 56.5293C147.692 57.2338 148.347 58.5808 148.893 59.5819C149.329 60.3811 149.413 61.5642 149.235 62.4707C149.065 63.341 148.198 64.1591 147.322 64.2352C145.709 64.3755 143.971 64.314 142.356 64.2352C140.349 64.1373 138.422 63.5884 136.4 63.5726C134.422 63.5571 132.406 63.4646 130.458 63.8704C129.111 64.151 130.741 65.0143 131.18 65.3893C132.125 66.1946 132.632 67.4015 131.91 68.5684C131.456 69.3017 130.443 69.2013 129.706 69.2013H126.17C123.713 69.2013 121.255 69.1813 118.799 69.2013C116.476 69.2202 112.328 68.7733 111.539 71.6136C111.156 72.9947 111.447 74.562 109.492 74.562H104.682C103.412 74.562 101.919 74.4844 100.751 75.0683C99.6029 75.6424 100.012 77.7503 98.4654 77.905C97.2189 78.0296 95.8123 77.9917 94.5715 77.8826C93.5909 77.7964 92.3123 77.7231 91.5635 76.9743C90.6326 76.0434 89.4893 75.1965 88.0791 75.1055C86.9958 75.0356 85.5294 74.8689 84.5351 75.3661C84.1692 75.549 84.2536 76.0531 84.1033 76.4084C83.7851 77.1604 81.6853 76.8403 81.1251 76.8403C79.5336 76.8403 78.0223 76.7528 76.442 76.5722C74.975 76.4046 74.3498 76.115 74.3498 74.696C74.3498 74.2977 73.9627 74.0273 73.6574 73.8174C72.6398 73.1179 71.4254 73.1732 70.2408 73.2272L70.1953 73.2293C68.9762 73.2847 64.8346 72.8923 64.8346 74.897C64.8346 75.4285 64.9464 75.9402 64.5368 76.334C63.9746 76.8745 62.9451 76.8403 62.2138 76.8403C60.7385 76.8403 58.2649 76.7602 57.8657 74.964C57.4955 73.2979 56.4205 73.3558 54.9471 73.3558C53.9357 73.3558 53.1144 73.3993 52.1477 73.6313C51.1504 73.8706 50.1842 74.2576 49.1621 74.428C48.4225 74.5512 45.4022 75.0115 45.4022 73.7281C45.4022 72.812 45.9212 71.6822 45.0671 71.018C44.5182 70.5911 43.0625 71.076 42.5431 71.286C41.6867 71.6322 40.9395 72.1102 40.0713 72.4177C39.2055 72.7243 37.7799 72.6809 36.8549 72.5219C36.0291 72.38 35.2782 71.8961 34.4649 71.6881Z" stroke="#3D5232" stroke-width="3" stroke-linecap="round" stroke-linejoin="round"/>
</svg>
