<svg width="68" height="44" viewBox="0 0 68 44" fill="none" xmlns="http://www.w3.org/2000/svg" preserveAspectRatio="none">
<path d="M44.534 42.3006C75.1348 40.5005 68.7347 35.0421 60.534 31.3006C17.1348 11.5 -23.4441 35.0632 16.0341 39.8006C28.5341 41.3006 27.534 43.3006 44.534 42.3006Z" fill="black" fill-opacity="0.34"/>
<path d="M57.3234 27.6152C58.8701 29.8494 60.5765 31.8365 60.5765 34.5C60.5765 37.8788 59.0932 39.1209 56.3351 40.5C53.3693 41.9829 48.1332 41.6215 42.0765 42C34.0765 42.5 28.0765 41.2 24.5765 40.5C21.0765 39.8 17.5162 39.5759 16.0765 39C13.5765 38 11.6493 36.6324 10.5765 35.5C7.63341 32.3934 13.9606 23.5137 15.5765 21C17.6717 17.7409 19.98 13.8851 22.5766 11C24.1046 9.30217 25.3802 6 28.0765 6C30.1239 6 33.3677 7.87855 35.0765 9C37.1255 10.3446 37.9176 12.1701 39.8057 13.7086C42.093 15.5723 44.8262 17.1979 46.7501 19.4612L46.7516 19.463L46.7517 19.4631C47.785 20.6787 48.7892 21.8602 50.1013 22.7765C51.3217 23.6289 52.6079 24.3345 53.9363 24.9987C55.3095 25.6853 56.4565 26.3629 57.3234 27.6152Z" fill="#ABA589"/>
<path d="M30.6571 12.1136C29.0548 10.96 27.4307 10.179 25.5497 9.51511C25.5497 7.72723 28.007 6.46833 29.098 5.24099C29.7565 4.50014 31.4431 2.90231 32.4851 2.90231H35.5495C36.8998 2.90231 38.348 3.74821 39.6624 4.04029C40.5936 4.24723 41.7209 4.88025 42.4043 5.56356C42.9088 6.06814 43.8084 6.4209 44.4203 6.77322C44.9364 7.07033 45.0286 7.71143 45.4687 8.06352C45.9143 8.42 46.2372 9.05767 46.6425 9.47927C47.0222 9.8741 47.4509 10.7118 47.897 10.9667C49.0309 11.6147 49.4485 13.4349 50.3163 14.3537C50.7176 14.7786 51.0516 15.4075 51.526 15.7337C52.1813 16.1842 53.0028 16.849 53.5421 17.4182C54.3666 18.2886 55.7367 18.9763 56.3646 19.9182C56.9917 20.8589 58.3988 21.9612 59.3395 22.5884C60.2712 23.2095 61.5445 24.3371 62.0366 25.3213C62.4723 26.1928 62.162 27.8871 62.162 28.8338C62.162 29.5677 62.0007 30.2616 62.0007 30.9753C62.0007 31.423 62.0588 32.5151 61.8036 32.866C61.3266 33.5218 60.5971 34.9406 60.5491 35.805C60.5192 36.3438 60.186 37.2955 59.8681 37.7405C59.6052 38.1086 59.3765 38.6615 59.0169 38.9412C58.7853 39.1213 58.501 39.1906 58.3001 39.425C57.6217 40.2164 57.4847 37.8268 57.4847 37.4985C57.4847 35.3989 55.8016 33.7755 54.8682 32.0954C54.5452 31.5139 53.5238 30.3142 52.87 30.1689C51.7877 29.9284 50.7877 29.1922 49.6622 29.1922C48.6421 29.1922 47.5089 29.0309 46.4364 29.0309C46.0249 29.0309 45.5656 28.9251 45.2626 29.2281C45.0793 29.4114 44.2327 29.4705 44.0261 29.2639C43.6157 28.8535 43.9365 26.7264 43.9365 26.1636C43.9365 24.91 42.8328 24.6091 42.001 23.8697C41.3265 23.2701 40.1312 23.1878 39.3487 22.7407C38.497 22.254 38.7753 21.1008 38.7753 20.2407C38.7753 19.3515 38.5335 18.4438 37.933 17.7766C37.3862 17.1691 36.5642 16.2257 35.8721 15.8412C34.7677 15.2276 33.8191 14.1849 32.7359 13.5831C31.9706 13.158 31.3878 12.6397 30.6571 12.1136Z" fill="#D1CCBC"/>
<path d="M36.9571 14.4685C36.5622 14.494 34.9031 15.254 34.5765 15C29.0765 14.5 26.5765 13 25.2957 9.72281C24.666 9.72281 25.2543 8.88998 25.4217 8.58856C25.8046 7.89943 26.4298 7.11528 26.9971 6.56425C27.8325 5.75268 28.6353 4.69023 29.5765 4C30.8858 3.03989 32.9176 2 34.5765 2C36.1411 2 41.6826 3.93965 42.8607 5C43.905 5.93987 49.1224 9.90823 48.5765 11C48.4603 11.2325 44.0151 10.3054 43.8217 10.2545C43.5218 10.1756 43.1689 10.219 42.8607 10.219H41.0136C40.7077 10.219 40.462 10.2394 40.8246 10.475C41.2099 10.7255 41.1751 11.0056 41.1751 11.4281C41.1751 12.3484 40.7731 13.4009 39.9345 13.8384C39.0269 14.3119 37.9686 14.4033 36.9571 14.4685Z" fill="#E7E5DD"/>
<path d="M19.5765 39C15.0765 38 15.5765 39 10.0765 35.5C9.74321 34.8333 9.27655 33 10.0765 31C11.0765 28.5 14.0765 24 17.0765 19C20.0765 14 21.5765 17 25.0765 19C28.5765 21 25.5765 23.5 28.0765 28C30.5765 32.5 32.0765 32.5 33.5765 35.5C35.0765 38.5 33.5765 41.5 27.0765 40.5C20.5765 39.5 24.0765 40 19.5765 39Z" fill="#928D80"/>
<path d="M39.5765 3.49999C34.0765 1.49999 30.5765 -1.50001 14.5765 23C11.5765 27.487 4.04563 37.4363 17.0766 39C29.5765 40.5 28.5765 42.5 45.5765 41.5C62.5765 40.5 58.5765 39 61.5765 30.5C64.5765 22 58.0765 23 51.5765 14.5C45.0765 6.00001 45.0765 5.49999 39.5765 3.49999Z" stroke="#70624D" stroke-width="3"/>
</svg>
