<svg width="415" height="519" viewBox="0 0 415 519" fill="none" xmlns="http://www.w3.org/2000/svg">
<path fill-rule="evenodd" clip-rule="evenodd" d="M135.539 257.64C126.788 257.527 115.809 257.385 111.316 258.98C110.678 259.206 110.603 259.634 110.53 260.052C110.477 260.353 110.425 260.649 110.164 260.86C109.607 261.308 107.39 262.632 106.312 262.863C102.582 263.665 98.6383 262.695 95.9018 262.022C95.8009 261.997 95.7017 261.972 95.6042 261.948C89.5785 260.472 79.979 261.679 75.2079 263.813C71.6479 265.406 71.2475 267.997 70.8979 270.26C70.801 270.887 70.7079 271.489 70.5525 272.038C69.7975 274.703 62.6915 275.681 56.2504 276.566C53.0514 277.006 50.0163 277.424 48.0049 278.014C43.2999 279.395 40.1588 281.395 37.603 283.435C35.8292 284.852 38.0088 284.81 40.5197 284.762C42.689 284.721 45.1057 284.674 45.4343 285.56C46.5129 288.465 37.128 290.268 30.5068 291.541C29.0303 291.825 27.6911 292.082 26.6362 292.32C20.656 293.665 16.7151 299.007 18.9409 301.461C19.8066 302.415 21.6172 302.373 23.2089 302.337C25.1764 302.291 26.8096 302.253 25.9102 304.115C24.9444 306.113 18.4358 309.35 15.0156 310.828C8.4116 313.681 2.42986 319.188 16.1241 319.157C16.9276 319.155 17.7333 319.161 18.5395 319.166C22.1302 319.19 25.7304 319.215 29.1867 318.6C29.8462 318.482 30.474 318.354 31.09 318.227C32.8316 317.87 34.4792 317.532 36.4821 317.527C42.7838 317.513 45.2353 318.321 44.8079 320.941C44.5215 322.696 44.808 324.932 49.7925 325.389C52.1353 325.604 55.5672 325.5 57.9734 325.371C59.3745 325.295 60.368 324.936 61.3522 324.579C62.3959 324.202 63.4291 323.828 64.9269 323.8C69.6806 323.714 70.2225 325.249 70.8011 326.889C71.3838 328.54 72.0037 330.297 76.9993 330.609C79.106 330.74 81.4369 330.65 83.7754 330.56C86.6425 330.449 89.5209 330.338 92.0114 330.634C94.1537 330.889 93.7022 332.862 93.3105 334.574C93.0766 335.596 92.864 336.525 93.2387 336.938C93.616 337.354 93.8758 337.761 94.1261 338.153C94.847 339.281 95.4888 340.285 98.6334 341.034C104.086 342.331 111.274 342.028 118.355 341.73C123.178 341.527 127.951 341.325 132.093 341.633C133.399 341.73 133.969 342.192 134.539 342.655C135.097 343.108 135.656 343.562 136.906 343.676C138.371 343.81 140.092 343.768 141.742 343.727C142.48 343.709 143.203 343.691 143.883 343.69C151.047 343.674 153.376 344.692 155.955 347.477C158.766 350.512 164.758 352.606 171.8 353.335C173.222 358.583 173.73 362.685 174.039 369.057C174.206 372.484 174.598 375.915 175.005 379.482C175.87 387.054 176.804 395.237 175.799 405.284C174.756 415.713 174.472 417.29 174.33 418.879C174.232 419.967 174.201 421.06 174.039 425C173.973 426.618 174.15 428.767 174.364 431.361C175.431 444.313 177.412 468.338 154.5 492.5C141 529 253.5 522 253.5 505C260.327 486.675 241.432 479.118 228.858 474.09C223.935 472.121 219.981 470.54 218.92 468.852C214.204 461.352 212.286 457.693 211.766 446.989C211.482 441.147 210.472 436.368 209.554 432.027C208.791 428.415 208.092 425.106 207.928 421.741C207.774 418.565 207.333 416.079 206.83 413.237C206.159 409.447 205.375 405.027 205.01 397.499C204.79 392.978 204.269 388.587 203.764 384.326C202.796 376.168 201.885 368.483 203.249 361.272C204.692 353.65 210.852 348.187 217.333 344.242C218.937 344.335 220.53 344.475 222.115 344.688C229.403 345.668 237.45 342.776 242.743 340.535C245.881 339.207 247.507 337.936 249.132 336.667C249.461 336.409 249.79 336.152 250.132 335.894C251.345 335.851 252.436 335.829 253.358 335.824C252.643 335.651 251.843 335.469 250.972 335.283C251.661 334.8 252.428 334.314 253.356 333.822C256.377 332.221 263.06 332.27 268.098 332.307C268.909 332.313 269.677 332.319 270.38 332.317C272.09 332.314 273.81 332.299 275.534 332.284C280.319 332.244 285.133 332.203 289.826 332.391C292.098 332.482 294.44 332.795 296.763 333.105C299.497 333.469 302.206 333.83 304.749 333.825C310.006 333.813 313.295 331.997 313.637 329.903C313.904 328.265 313.161 327.478 312.208 326.469C311.796 326.033 311.345 325.556 310.92 324.951C308.003 320.804 317.688 319.232 325.849 317.908C328.586 317.463 331.152 317.047 333.014 316.57C337.953 315.306 337.202 313.542 332.994 312.375C326.27 310.51 336.451 308.008 342.381 306.551C343.714 306.224 344.833 305.949 345.496 305.746C346.235 305.52 347.013 305.286 347.816 305.043C358.715 301.756 374.468 297.005 366.286 291.53C364.428 290.287 364.618 289.311 364.892 287.894C364.933 287.681 364.977 287.457 365.015 287.22C365.122 286.564 364.863 285.912 364.602 285.258C364.183 284.204 363.761 283.145 364.871 282.057C366.191 280.762 368.406 279.58 370.631 278.393C374.697 276.224 378.793 274.038 377.513 271.116C375.3 266.067 359.297 270.198 353.142 271.845C350.479 272.558 346.863 273.052 343.183 273.555C337.688 274.306 332.051 275.077 329.239 276.622C328.98 276.764 328.679 276.944 328.344 277.143C326.092 278.485 322.355 280.711 320.221 278.314C318.324 276.183 320.25 274.444 322.202 272.682C323.127 271.848 324.057 271.009 324.59 270.12C326.325 267.225 318.531 266.683 312.484 266.262C310.959 266.156 309.546 266.058 308.424 265.931C301.333 265.132 296.563 266.423 291.885 268.785C289.274 270.102 289.086 268.5 289.82 267.616C290.972 266.227 293.046 265.578 295.322 264.866C296.282 264.566 297.278 264.254 298.256 263.871C304.402 261.463 288.817 260.46 286.192 260.466C278.382 260.483 274.657 261.199 267.745 262.913C262.021 264.332 262.484 261.962 262.79 260.392C262.818 260.25 262.844 260.115 262.864 259.99C263.45 256.402 262.375 255.238 253.273 255.259C241.36 255.285 232.379 257.918 222.743 260.901C222.467 260.987 222.179 261.079 221.882 261.175C219.168 262.05 215.692 263.172 213.466 261.157C213.314 261.019 213.167 260.885 213.024 260.754C210.819 258.735 209.436 257.469 203.35 257.483L185.86 257.522L175.069 257.546C172.402 257.552 171.006 256.861 169.815 256.27C168.958 255.846 168.206 255.473 167.163 255.452C167.022 255.449 166.882 255.446 166.741 255.443C163.084 255.365 159.328 255.285 156.216 256.004C155.966 256.062 155.72 256.119 155.477 256.175C152.055 256.971 149.332 257.604 145.238 257.613C142.999 257.737 139.497 257.691 135.539 257.64Z" fill="black" fill-opacity="0.35"/>
<path d="M184.725 434.13C183.486 449.674 178.532 462.627 166.146 475.58C139.996 514 161.996 511.849 192.996 514C230.156 516.579 219.896 516.363 240.462 511.849C257.996 508 256.363 492.859 249.133 480.761C242.94 470.399 240.462 465.218 240.462 448.379C240.462 431.54 236.747 421.177 236.747 409.519C236.747 397.862 234.269 392.68 234.269 371.956C234.269 351.231 230.554 333.096 234.269 314.962C237.985 296.828 255.326 282.579 267.712 273.512C277.621 266.259 300.417 230.335 309.5 228.177C298.353 227.745 270.189 258.746 255.326 267.036C240.462 275.326 235.921 274.808 234.269 278.694C233.444 272.649 229.81 266.259 231.792 247.606C234.269 224.291 233.031 230.767 236.747 217.814C240.462 204.861 270.189 185.432 255.326 194.499C240.462 203.566 223.122 212.633 219.406 230.767C216.433 245.275 216.516 260.991 216.929 267.036C216.103 268.331 214.204 269.367 213.213 263.15C211.974 255.378 209.497 237.244 203.304 217.814C197.765 200.436 178.532 172.478 178.532 178.955C178.532 185.432 189.68 210.042 192.157 228.177C194.138 242.684 197.937 265.309 197.111 273.512C197.111 271.785 191.512 262.758 184.725 254.083C162.43 225.586 104.216 206.156 131.465 225.586C148.405 237.665 178.532 272.217 184.725 292.942C190.918 313.667 192.157 320.143 192.157 336.982C192.157 353.821 195.283 369.999 192.157 393.976C188.441 422.473 185.964 418.587 184.725 434.13Z" fill="#534330"/>
<path d="M188.847 413C183.347 432 187.847 437 176.347 463C175.014 464.5 172.646 468.5 164.497 479C148.875 499.128 151.497 509 170.997 512C193.831 515.513 218.425 517.015 240.847 512C256.497 508.5 257.497 494 247.847 479C243.194 471.765 241.847 463.5 238.847 433C235.847 402.5 232.847 353.5 232.847 331.5C232.847 313.9 235.847 306.167 237.347 304.5C235.014 305 228.547 309.8 221.347 325C212.347 344 196.347 314 199.847 335C203.347 356 192.48 354.818 193.347 370C194.347 387.5 190.217 408.27 188.847 413Z" fill="#6F593F"/>
<path d="M201.205 464.777C192.664 465.347 183.739 453.847 182.62 446.93C182.62 444.184 183.148 440.234 184.88 438.007C185.415 437.319 185.174 435.677 185.433 434.802C185.799 433.569 185.743 432.191 186.148 430.974C186.574 429.697 186.412 428.677 187.001 427.424C187.597 426.158 187.862 424.438 188.223 423.066C188.775 420.969 188.835 418.683 189.468 416.655C190.347 413.845 190.134 410.715 191.106 407.94C192.301 404.524 192.16 401.072 192.604 397.517C192.89 395.23 192.996 393.051 192.996 390.715C192.996 385.781 193.826 380.866 193.826 375.866V360.417C193.826 356.547 192.996 353.261 192.996 349.488C192.996 345.095 192.047 334.773 192.996 330.5C193.721 327.241 191.347 319.5 201.09 322.833C202.506 323.462 203.104 326.321 204.387 327.421C205.354 328.25 208.347 328.286 211.847 331.5C214.348 332.286 213.729 327.425 215.347 326.5C216.153 326.04 216.148 325.609 216.654 324.724C217.734 322.833 216.64 320.086 217.847 319C218.831 318.115 220.876 317.709 221.611 316.607C222.625 315.086 223.814 313.808 224.955 312.365C226.05 310.979 226.744 309.22 227.883 307.891C228.668 306.976 229.419 306.496 230.027 305.401C231.033 303.591 239.644 301.581 238.347 304.5C237.693 305.973 236.347 309.5 235.347 312C233.227 320.482 232.847 325.787 232.847 334C232.847 338.584 232.84 343.439 232.84 348C232.84 352.653 233.847 358.512 233.847 363.5C233.847 371.117 234.494 377.909 234.916 385.504C235.151 389.733 236.037 394.053 236.161 398.371C236.263 401.948 237.083 407 237.083 411.652C237.083 416.304 237.653 417.365 237.821 419.63C237.982 421.81 238.236 423.931 238.236 426.178C238.236 429.792 239.896 432.965 239.896 436.5C239.896 440.367 240.347 444.634 240.347 448.5C240.347 450.19 239.393 450.957 239.043 452.534C238.646 454.32 236.576 455.242 236.576 457.099C236.576 457.59 237.855 460.277 238.467 460.627C239.563 461.253 239.066 463.844 239.066 464.985C239.066 468.21 238.432 472.458 236.069 474.646C232.157 478.268 227.398 477.495 222.787 476.076C216.576 474.164 203.092 460.295 200.347 454.5C199.462 452.631 203.365 464.633 201.205 464.777Z" fill="#866947"/>
<path d="M184.725 434.13C183.486 449.674 178.532 462.627 166.146 475.58C149.497 500.5 151.997 507.261 162.996 510C188.528 516.357 214.498 514.578 240.462 511.849C257.24 510.085 256.363 492.859 249.133 480.761C242.94 470.399 240.462 465.218 240.462 448.379C240.462 431.54 236.747 421.177 236.747 409.519C236.747 397.862 234.269 392.68 234.269 371.956C234.269 351.231 230.554 333.096 234.269 314.962C237.985 296.828 255.326 282.579 267.712 273.512C277.621 266.259 304.917 227.745 314 225.586C302.853 225.154 270.189 258.746 255.326 267.036C240.462 275.326 235.921 274.808 234.269 278.694C233.444 272.649 229.81 266.259 231.792 247.606C234.269 224.291 233.031 230.767 236.747 217.814C240.462 204.861 270.189 185.432 255.326 194.499C240.462 203.566 223.122 212.633 219.406 230.767C216.433 245.275 216.516 260.991 216.929 267.036C216.103 268.331 214.204 269.367 213.213 263.15C211.974 255.378 209.497 237.244 203.304 217.814C197.765 200.436 178.532 172.478 178.532 178.955C178.532 185.432 189.68 210.042 192.157 228.177C194.138 242.684 197.937 265.309 197.111 273.512C197.111 271.785 191.512 262.758 184.725 254.083C162.43 225.586 104.216 206.156 131.465 225.586C148.405 237.665 178.532 272.217 184.725 292.942C190.918 313.667 192.157 320.143 192.157 336.982C192.157 353.821 195.283 369.999 192.157 393.976C188.441 422.473 185.964 418.587 184.725 434.13Z" stroke="#503F2B" stroke-width="3"/>
<path d="M209.549 357.282C209.549 369.681 209.725 382.082 208.811 394.456C208.163 403.225 208.203 412.011 207.187 420.742" stroke="#634E35" stroke-linecap="round" stroke-linejoin="round"/>
<path d="M225.488 382.666C226.216 410.18 229.941 437.512 230.8 465.017" stroke="#634E35" stroke-linecap="round" stroke-linejoin="round"/>
<path d="M208.368 444.946C207.238 460.762 208.71 476.69 202.465 491.582" stroke="#634E35" stroke-linecap="round" stroke-linejoin="round"/>
<path d="M167.636 494.828C175.08 490.033 181.507 483.69 187.149 476.889C195.082 467.328 201.675 456.6 206.597 445.241" stroke="#634E35" stroke-linecap="round" stroke-linejoin="round"/>
<path d="M222.241 334.85C222.241 330.921 222.802 327.415 223.864 323.617C225.468 317.881 226.361 311.984 227.849 306.219" stroke="#634E35" stroke-linecap="round" stroke-linejoin="round"/>
<path d="M233.457 281.721C228.727 288.583 226.196 295.71 223.717 303.563" stroke="#634E35" stroke-linecap="round" stroke-linejoin="round"/>
<path d="M216.337 270.209C214.477 285.213 211.056 299.815 207.483 314.484" stroke="#634E35" stroke-linecap="round" stroke-linejoin="round"/>
<path d="M195.971 294.413C199.833 309.64 204.067 324.673 204.531 340.458" stroke="#634E35" stroke-linecap="round" stroke-linejoin="round"/>
<path d="M220.175 355.807C220.243 369.582 220.47 383.353 220.47 397.129" stroke="#634E35" stroke-linecap="round" stroke-linejoin="round"/>
<path d="M218.404 411.592C218.404 429.991 218.404 448.389 218.404 466.788" stroke="#634E35" stroke-linecap="round" stroke-linejoin="round"/>
<path d="M235.523 482.136C238.189 487.128 240.812 492.108 244.099 496.73C246.073 499.506 248.295 501.537 250.576 503.978" stroke="#634E35" stroke-linecap="round" stroke-linejoin="round"/>
<path d="M206.483 362.594C207.846 382.871 208.39 403.032 208.962 423.333" stroke="#634E35" stroke-linecap="round" stroke-linejoin="round"/>
<path d="M204.004 409.698C203.557 418.623 199.524 426.841 196.291 435.041C191.446 447.326 184.542 458.202 177.353 469.198" stroke="#634E35" stroke-linecap="round" stroke-linejoin="round"/>
<path d="M235.37 508.45C230.201 508.163 226.392 501.783 224.847 497.317C223.403 493.148 222.503 489.529 222.405 485.092C222.304 480.481 222.119 476.069 221.388 471.499" stroke="#634E35" stroke-linecap="round" stroke-linejoin="round"/>
<path d="M208.405 511.114C209.394 508.832 210.64 506.668 211.568 504.363C214.085 498.108 215.233 491.354 216.728 484.815" stroke="#634E35" stroke-linecap="round" stroke-linejoin="round"/>
<path d="M166.793 506.12C174.087 505.989 180.747 505.024 187.359 501.719C190.716 500.04 192.789 497.643 195.089 494.802" stroke="#634E35" stroke-linecap="round" stroke-linejoin="round"/>
<path d="M156.024 496.138C160.069 493.072 164.67 490.258 168.167 486.563C172.782 481.685 175.023 476.33 176.73 470" stroke="#634E35" stroke-linecap="round" stroke-linejoin="round"/>
<path d="M108.603 260.536C115.568 266.814 138.716 263.014 146.789 264.056C151.755 264.056 154.809 266.017 158.932 268.377C162.456 270.395 166.926 270.057 171.234 269.818C174.069 269.66 175.384 264.056 180.581 264.056H192.804H212.616C219.958 264.056 221.524 260.13 224.759 253.974C227.97 247.862 232.212 252.268 235.224 254.614C245.592 262.691 255.282 269.818 268.776 269.818C279.086 269.818 280.52 266.638 280.52 256.855C280.52 252.731 279.805 244.67 286.591 248.853C294.107 253.486 298.195 255.415 307.042 255.415C310.015 255.415 327.862 252.583 321.342 246.053C317.847 242.551 313.966 241.268 312.475 235.891C311.807 233.482 312.316 229.112 315.031 232.69C319.896 239.102 325.063 242.594 333.245 240.372C339.673 238.626 354.131 238.722 352.338 228.849C350.97 221.314 345.155 215.107 348.903 206.525C352.189 199.002 356.743 208.097 358.809 211.086C363.652 218.092 377.817 219.164 385.012 223.968C391.682 228.422 409.053 239.593 412.493 225.809C415.574 213.467 403.744 206.008 400.191 196.043C398.48 191.245 401.309 186.635 401.309 181.96C401.309 177.048 400.859 174.113 403.546 170.198C414.588 154.111 394.205 140.467 382.616 131.55C378.725 128.557 359.919 119.827 369.674 113.547C374.659 110.337 375.836 105.523 370.473 102.104C362.425 96.9746 341.548 94.5085 346.986 79.3797C348.956 73.8999 350.98 72.2516 350.98 65.857C350.98 60.1469 347.589 55.2149 341.634 55.2149C336.304 55.2149 330.099 58.6444 324.458 59.2157C317.177 59.9532 309.72 59.5358 302.409 59.5358C296.662 59.5358 287.026 60.5849 283.396 55.535C278.975 49.3847 278.373 43.5645 272.611 37.2914C267.027 31.2116 258.444 23.3717 250.003 26.0892C244.168 27.9678 238.371 27.8495 232.348 27.8495C229.576 27.8495 230.233 25.5346 229.392 23.3686C227.173 17.6538 223.269 12.307 218.528 8.40565C203.581 -3.89166 182.923 2.5598 175.548 18.8877C172.111 26.4985 169.284 29.2898 161.169 29.2898C158.676 29.2898 155.699 28.8269 153.26 29.3698C150.352 30.0171 150.391 34.4313 147.428 34.9709C135.703 37.1062 120.191 30.8074 109.402 36.8113C104.415 39.5861 104.489 43.6011 102.531 48.0135C101.192 51.0325 103.928 64.0856 99.9751 65.2169C94.7517 66.7117 88.3275 64.5497 82.9591 65.3769C71.5618 67.1332 78.7993 84.4359 68.0202 84.0206C64.732 83.894 63.6738 80.1858 60.4309 79.7798C57.7283 79.4414 53.8584 79.1801 51.164 79.7798C45.4313 81.0558 44.6932 87.1562 44.6932 91.9422C44.6932 99.0847 41.7658 101.304 34.6274 101.304C31.5562 101.304 29.3358 99.6328 26.5588 98.4235C21.902 96.3955 16.8237 96.9832 11.8596 96.9832C-3.65266 96.9832 2.10755 111.966 9.06353 119.708C12.666 123.717 19.443 132.506 20.1678 137.951C21.389 147.125 14.3679 139.4 11.7797 145.233C8.80377 151.939 12.2819 166.485 18.8098 170.118C25.1251 173.632 41.0132 178.743 38.8614 188.441C37.7049 193.654 26.336 187.102 29.5945 194.283C32.1133 199.833 35.3031 205.267 40.3793 209.005C46.9189 213.822 64.2818 214.293 64.8247 225.169C65.1686 232.058 63.8029 242.053 68.5794 247.573C73.5913 253.365 84.246 256.598 91.3473 252.534C94.58 250.684 99.4212 247.731 103.65 249.974C104.829 250.599 107.096 254.195 107.644 255.415C108.259 256.782 107.43 259.479 108.603 260.536Z" fill="#47613B"/>
<path d="M44.4829 142.948C43.1199 141.131 44.6299 138.303 45.2075 136.457C45.2075 135.56 43.418 132.239 42.6555 131.857C41.9918 131.526 41.5247 130.949 40.8281 130.723C40.176 130.512 39.8409 129.889 39.1897 129.715C38.3449 129.49 37.6606 129.286 36.9212 128.801C34.6 127.28 32.6806 125.379 30.4623 123.76C27.5832 121.659 23.4459 120.828 23.6569 116.608C23.6937 115.871 24.9362 115.618 25.4528 115.474C28.9358 114.502 32.5454 114.169 35.9445 112.859C39.0512 111.662 40.6527 110.498 41.7418 107.566C42.8344 104.624 44.5437 101.632 47.539 100.225C50.9526 98.6213 54.8906 98.4593 58.4404 97.1685C61.5116 96.0517 63.9225 94.843 63.9225 91.3082C63.9225 87.4677 68.9097 85.052 72.2088 84.2192C80.0489 82.2402 88.378 82.788 96.217 80.6589C97.332 80.3561 99.559 80.0834 99.0526 78.4377C98.8085 77.6443 97.9085 77.2807 97.7136 76.4685C97.4776 75.4854 97.843 74.3888 98.4382 73.6172C102.385 68.5008 108.699 65.2256 113.53 60.9987C115.509 59.2675 118.749 56.9605 117.358 54.0515C116.309 51.8576 115.172 49.7087 116.114 47.1987C116.522 46.1087 117.494 44.9871 118.524 44.4419C119.616 43.8636 120.813 44.0165 122.021 44.0165H136.325C139.718 44.0165 143.126 44.1085 146.518 44.0008C147.835 43.959 148.892 43.8317 149.842 42.8823C151.727 40.9972 153.472 39.337 156.033 38.3768C160.165 36.8273 164.333 36.7289 168.698 36.4864C174.063 36.1884 179.02 35.2873 184.263 34.3755C184.979 34.2508 184.935 33.9943 185.161 33.383C185.595 32.205 186.835 31.2625 187.79 30.5373L187.839 30.5001C191.106 28.017 195.784 25.0179 200.048 25.0179C201.406 25.0179 202.79 24.9177 204.128 25.1912C206.5 25.6765 208.841 26.249 211.264 26.42C213.651 26.5885 215.895 26.806 218.133 27.7118C220.215 28.5548 221.297 30.499 223 31.8234C224.567 33.0419 226.047 32.6741 228.073 32.6741H244.677C248.289 32.6741 251.903 32.6427 255.515 32.6741C259.305 32.707 264.191 32.764 267.519 34.9426C271.501 37.5487 272.638 43.4477 273.411 47.7974C273.616 48.9521 273.416 50.4798 274.325 51.3891C275.099 52.1633 276.224 52.9219 277.223 53.3741C278.79 54.0825 280.249 55.8642 281.571 56.9343C284.352 59.1838 287.403 61.2422 290.551 62.9521C298.373 67.2012 308.772 67.0655 317.158 64.4172C319.811 63.5795 322.25 62.448 325.067 62.448C330.075 62.448 335.09 62.3703 340.095 62.5898C342.348 62.6886 344.583 62.7316 346.838 62.7316C347.635 62.7316 348.802 62.5209 349.595 62.7473C350.435 62.9875 348.923 64.4635 348.744 64.5747C347.769 65.1785 346.073 66.1785 345.814 67.4103C345.648 68.1997 345.782 69.1547 345.782 69.9624C345.782 71.7928 345.226 72.0356 344.475 73.5384C343.728 75.0325 342.137 76.0093 341.403 77.4767C340.898 78.4866 340.962 79.8082 340.962 80.8952C340.962 82.9371 340.813 84.8507 342.285 86.4404C343.751 88.0235 345.356 89.8698 347.342 90.8041C348.917 91.5454 349.832 93.1827 349.358 94.9158C348.891 96.6231 344.367 104.293 347.547 104.399C348.265 104.423 350.439 104.042 350.886 104.825C351.435 105.784 352.157 106.389 353.02 107.112L353.092 107.172C355.642 109.308 358.096 111.371 360.464 113.71C362.545 115.764 365.177 116.507 367.396 118.31C369.274 119.836 370.493 121.959 370.956 124.327C371.673 127.99 353.409 130.295 356.337 133.905C357.527 135.374 360.025 136.359 361.567 137.371C364.074 139.017 366.288 140.569 367.995 143.074C369.633 145.48 370.562 149.163 368.121 151.36C366.545 152.779 363.828 154.009 363.142 156.181C362.592 157.925 364.132 158.656 365.443 159.363C370.496 162.089 377.061 163.823 380.597 168.752C381.978 170.676 382.116 175.401 380.471 177.196C378.363 179.496 372.978 178.457 370.389 177.794C366.612 176.828 364.056 175.604 361.473 172.848C357.955 169.095 354.174 165.919 350.004 162.86C345.095 159.259 338.773 156.938 332.675 158.922C330.972 159.476 330.996 160.401 331.035 161.911L331.037 161.978C331.12 165.22 334.326 167.162 336.504 169.051C336.931 169.422 340.235 172.339 338.693 173.21C336.584 174.402 333.87 174.735 331.525 175.022C326.671 175.616 321.804 176.071 316.954 176.707C314.53 177.025 311.96 177.145 309.691 178.141C308.411 178.703 307.257 179.658 306.084 180.409C303.811 181.864 299.781 183.561 298.617 186.207C297.937 187.751 298.428 190.357 298.428 192.02C298.428 195.827 299.019 200.336 295.749 203.079C293.2 205.217 289.747 205.947 286.534 206.324C280.82 206.994 274.818 207.078 269.11 206.292C265.06 205.734 261.123 204.871 257.5 202.937C255.026 201.616 253.34 199.857 251.246 198.053C247.563 194.88 243.465 194.587 238.801 194.587C236.409 194.587 235.207 194.076 236.202 196.698C237.148 199.192 237.926 201.516 238.234 204.213L238.243 204.29C238.524 206.747 238.94 210.383 237.131 212.405C235.712 213.991 233.75 213.87 231.791 213.87C227.679 213.87 223.584 213.641 219.487 213.287C213.489 212.768 205.86 212.668 201.04 208.466C198.987 206.677 198.363 204.125 198.047 201.519C197.73 198.907 197.933 195.037 195.117 193.611C190.457 191.251 185.285 190.05 180.088 190.05C178.023 190.05 177.427 190.067 177.347 192.477C177.211 196.543 177.633 200.792 175.961 204.638C173.671 209.903 168.217 212.114 162.822 212.168C154.597 212.251 145.313 211.803 137.522 208.797C136.618 208.448 133.196 207.318 133.111 206.024C133.053 205.13 133.594 204.187 134.025 203.441C135.827 200.323 129.724 203.227 128.921 201.33C128.28 199.815 129.452 197.83 130.276 196.698C131.046 195.641 133.018 193.688 133.111 192.382C133.293 189.837 129.813 187.292 127.377 188.192C120.117 190.875 113.148 196.981 105.039 194.934C101.382 194.011 98.0416 192.113 94.3266 191.311C91.1044 190.615 86.806 190.79 83.9294 189.027C80.0467 186.647 84.759 180.238 86.6232 178.125C87.9881 176.578 89.2512 174.994 90.5773 173.446C91.6282 172.22 92.9605 170.751 93.1136 169.067C93.1569 168.591 93.4637 166.069 92.83 165.964C90.5109 165.577 87.265 166.592 85.0793 167.208C79.7389 168.714 75.1245 169.288 69.641 167.917C66.4613 167.122 71.0971 161.758 71.4212 160.277C72.5265 155.224 64.8599 156.59 61.8273 156.59C57.549 156.59 53.5299 155.473 49.4452 154.29C47.4687 153.718 43.7897 152.469 43.7897 149.927C43.7897 147.976 45.2075 146.391 45.2075 144.444C45.2075 143.765 44.8884 143.489 44.4829 142.948Z" fill="#577942"/>
<path d="M101.482 65.2735C106.649 60.4279 106.686 58.6282 111.202 53.033C115.927 50.6145 130.889 53.6113 131.335 46.49C131.603 42.2078 135.35 39.86 138.661 38.4666C143.299 36.5149 149.941 39.5998 154.278 40.8754C160.475 42.6981 167.101 44.55 173.517 45.067C174.495 45.1458 179.596 46.161 179.966 44.7934C180.894 41.3563 174.419 40.3883 172.567 38.8842C170.162 36.9304 177.265 35.2376 177.735 35.1424C182.393 34.1997 186.966 34.659 191.623 34.2307C192.294 34.1689 194.99 34.6379 195.501 34.1473C195.979 33.6884 195.135 32.7937 195.321 32.2288C195.654 31.2237 200.028 34.4787 200.324 34.8008C203.285 38.0251 206.63 42.5699 210.275 44.8601C213.894 47.1347 219.648 46.9228 223.553 45.5915C226.575 44.5611 221.756 41.6705 221.869 39.007C221.95 37.0841 218.912 36.3668 221.156 31.5985C224.201 26.6912 228.477 29.7913 229.207 29.837C232.696 30.0556 227.776 39.2216 231.213 38.4925C234.763 37.7393 237.744 37.0142 241.378 37.7742C248.23 39.2073 255.185 41.2976 261.577 44.3096C265.916 46.3549 261.792 48.6236 259.187 49.706C257.647 50.3458 254.178 51.4285 257.886 51.7074C266.889 52.3847 279.611 51.7799 286.102 59.7991C289.023 63.4088 289.995 68.5472 293.476 71.6043C295.777 73.6249 300.666 73.0888 303.505 73.0607C305.888 73.0371 308.266 71.1456 310.374 70.1282C314.602 68.0867 319.343 65.6596 324.015 65.4366C328.466 65.2241 333.258 66.1755 337.484 67.5351C340.531 68.5158 343.464 68.8369 345.668 71.5613C346.082 72.0717 345.989 73.1233 345.326 73.3467C341.972 74.4771 338.476 75.1025 335.002 75.5106C332.521 75.8021 331.059 76.4395 330.943 79.2215C330.838 81.7149 331.926 84.1 334.277 84.4997C337.469 85.0422 346.734 85.4639 346.434 90.2552C346.313 92.1788 344.207 92.683 344.073 94.8253C343.758 99.8431 347.361 103.636 349.925 107.388C353.55 112.694 357.863 116.762 359.806 123.341C360.328 125.11 360.244 124.809 359.116 123.674C357.382 121.927 355.506 120.303 353.615 118.762C353.061 118.31 347.944 113.642 347.709 116.259C347.596 117.516 347.669 118.84 347.447 120.082C347.168 121.644 344.032 120.797 343.095 120.738C340.993 120.606 339.409 119.994 337.461 119.242L337.427 119.228C334.262 118.006 330.639 117.253 327.915 115.044C324.285 112.101 326.986 108.818 325.076 105.154C323.476 102.085 319.701 99.7563 316.865 98.2404C315.263 97.3839 318.225 100.707 318.49 101.379C322.14 110.649 301.034 103.814 298.421 102.33C296.412 101.189 294.778 97.632 293.731 95.5112C293.011 94.0545 292.014 92.4489 290.909 91.2439C287.778 87.8293 284.964 84.0375 281.649 80.8264C278.035 77.3245 273.117 74.0688 268.18 73.5832C267.026 73.4697 265.091 72.8866 265.264 74.1283C265.745 77.5702 267.749 82.4135 266.117 85.9014C265.157 87.9534 258.497 79.9977 257.82 79.2583C250.923 71.7308 239.947 68.3047 230.383 67.2001C228.074 66.9335 220.969 65.1037 223.057 69.7024C223.472 70.6183 230.101 80.7572 227.493 80.9471C220.901 81.4271 214.364 79.4313 207.734 80.6378C203.395 81.4272 207.4 82.2613 207.365 84.6802C207.335 86.798 203.179 87.9591 201.802 88.8489C198.38 91.0602 195.479 94.1162 192.041 96.3684C185.898 100.392 175.188 99.2616 168.693 97.4154C167.683 97.1282 160.741 94.325 163.335 92.0606C164.621 90.9381 167.001 90.3694 168.485 89.698C170.955 88.5809 173.474 87.6086 175.947 86.5014C176.237 86.3712 183.901 82.0478 182.238 81.751C177.756 80.9508 172.895 81.6734 168.341 81.3321C167.589 81.2758 159.036 80.7774 161.713 78.2066C165.558 74.5131 171.17 73.8463 175.243 70.4966C176.003 69.8718 174.836 68.9954 174.341 68.7085C171.163 66.866 166.883 66.7136 163.363 66.5903C157.817 66.3961 152.891 67.1869 147.848 69.9097C145.428 71.2165 143.298 73.028 140.928 74.395C137.74 76.2341 134.659 78.1068 131.252 79.4604C129.08 80.3233 121.325 83.4615 119.309 80.9708C118.307 79.7337 119.851 76.0015 117.247 76.3495C115.212 76.6215 112.689 78.6408 111.569 80.5111C110.425 82.4219 108.315 83.5083 106.704 84.9493C104.684 86.755 102.684 87.1569 100.19 87.0006C98.4993 86.8947 98.6063 84.3823 99.4102 82.8863C101.961 78.1397 107.494 77.3887 111.092 73.7806C112.513 72.3552 113.227 69.2427 110.56 70.4849C108.227 71.5718 105.805 72.3508 103.384 73.1723C101.041 73.9676 98.8993 75.3749 96.3956 75.4448C92.6146 75.5504 100.697 66.009 101.482 65.2735Z" fill="#7E9F54"/>
<path d="M69.8695 118.642C73.3116 117.022 76.0714 114.569 80.0205 114.428C80.535 111.855 79.865 110.444 77.1263 109.448C75.2239 108.757 73.2514 108.546 71.5082 107.363C70.5336 106.701 69.166 104.3 70.2951 103.17C71.1735 102.292 75.5355 102.863 76.573 102.958C79.0951 103.187 81.2548 104.469 83.8511 104.469C85.8984 104.469 99.1302 98.2233 99.5563 100.638C99.6787 101.332 100.322 101.437 100.322 102.255V104.554C100.322 106.382 98.4111 107.375 97.4708 108.852C96.0156 111.139 101.232 110.206 102.11 110.214C103.605 110.229 108.23 109.7 109.431 110.683C110.023 111.167 108.823 111.819 108.558 111.917C105.089 113.195 101.498 114.283 98.0454 115.598C96.4143 116.22 90.657 117.56 90.7461 119.876C90.8352 122.193 94.9401 123.993 91.6824 125.622C89.6852 126.62 86.2947 127.201 85.5748 129.793C85.1328 131.384 87.2432 135.68 85.5535 136.645C84.48 137.259 84.3294 137.794 82.8934 137.794C81.5886 137.794 79.998 138.057 78.7224 137.773C78.0114 137.615 78.6957 135.35 78.7862 134.943C78.9533 134.191 79.3883 130.899 78.2542 130.899C75.7327 130.899 73.7614 130.972 71.5933 132.432C68.5421 134.487 68.4974 139.826 63.7406 137.007C62.8005 136.45 59.1025 134.07 60.6549 132.432C61.8119 131.21 63.1563 130.044 64.528 129.069C65.607 128.302 67.2949 127.536 67.7202 126.154C68.5253 123.537 63.949 123.588 65.1665 121.706C66.0915 120.276 68.3873 119.339 69.8695 118.642Z" fill="#47613B"/>
<path d="M123.008 146.52C119.06 145.305 124.212 141.915 125.987 140.859C127.122 141.237 129.746 141.791 129.818 143.157C129.882 144.381 130.314 146.605 128.669 146.605C126.926 146.605 124.653 147.026 123.008 146.52Z" fill="#47613B"/>
<path d="M221.751 114.981C226.089 112.242 229.611 109.254 234.392 107.533C233.039 107.082 231.66 106.565 230.774 105.426C229.761 104.123 231.51 103.137 232.285 102.362C234.162 100.485 237.485 101.021 239.882 101.021C242.118 101.021 242.053 101.779 242.053 103.703C242.053 104.824 241.631 106.001 243.011 106.001H247.224C250.52 106.001 253.54 106.145 255.268 109.257C256.335 111.176 252.977 110.597 252.012 110.597C249.132 110.597 244.716 109.789 242.053 110.981C238.295 112.662 245.962 115.226 242.053 116.343C237.015 117.783 232.524 117.876 227.242 117.876C226.871 117.876 218.552 117.524 219.538 116.428C220.007 115.907 221.177 115.344 221.751 114.981Z" fill="#47613B"/>
<path d="M63.9612 201.94C60.1782 200.216 56.2533 198.989 52.4734 197.23C51.3487 197.23 46.475 200.897 45.8004 201.915C44.5457 203.809 44.6879 204.369 42.4005 204.369C41.3579 204.369 40.0221 202.284 39.4018 201.444C38.2536 199.889 37.6491 197.454 37.6491 195.445C37.6491 192.677 40.0409 194.998 41.0701 194.998C42.5346 194.998 42.4584 194.769 43.3508 193.66C43.8967 192.981 44.5676 192.49 45.1246 191.825C45.7702 191.054 46.4927 189.244 47.3419 188.801C48.2568 188.323 49.2546 189.786 49.9816 190.189C53.3619 192.061 57.449 193.021 61.0259 194.329C65.1443 195.835 69.1965 197.501 73.1683 199.486C74.2124 200.007 76.8004 200.944 76.8004 202.584C76.8004 205.061 74.5198 205.462 74.5198 208.039C74.5198 213.413 82.9639 213.753 86.0709 214.856C89.8612 216.201 95.3901 218.914 96.1861 224.054C96.3434 225.07 96.286 229.744 97.0096 228.64C98.2565 226.737 100.278 226.681 102.141 226.681C108.439 226.681 113.763 232.078 119.584 234.168C122.579 235.244 129.095 235.659 131.705 233.152C132.484 232.403 132.574 231.684 132.972 230.698C133.717 228.852 135.426 228.447 136.985 227.747C140.8 226.035 144.04 225.789 148.071 225.789C151.869 225.789 154.973 228.02 158.355 229.706C160.155 230.603 161.55 232.259 163.254 233.35C164.745 234.305 166.306 234.119 167.942 234.367C177.715 235.847 187.586 236.655 197.464 236.028C200.621 235.827 204.137 234.782 204.137 230.474C204.137 228.293 205.026 225.416 207.347 225.343C214.609 225.112 222.306 226.488 228.549 231.144C232.586 234.155 235.887 235.199 240.712 235.16C242.761 235.144 247.09 236.035 247.09 232.706C247.09 229.587 249.398 229.118 251.672 230.053C253.539 230.82 255.35 231.865 257.353 232.012C261.93 232.347 267.233 230.116 271.628 228.913C275.703 227.797 281.957 226.803 285.101 223.112C286.45 221.528 287.198 219.387 288.311 217.558C289.732 215.221 291.676 213.804 293.928 212.848C296.115 211.919 298.488 212.051 300.77 211.757C303.492 211.406 306.182 210.718 308.879 210.171C310.204 209.902 318.277 209.293 318.17 207.047C318.098 205.517 317.41 204.038 317.41 202.312C317.41 197.018 320.13 193.023 324.337 191.776C326.82 191.039 329.374 191.123 331.854 190.437C333.214 190.06 334.452 189.396 335.845 189.197C338.367 188.838 341.061 187.314 343.354 186.016L343.426 185.974C347.468 183.687 353.334 181.668 357.723 184.115C360.66 185.753 361.848 187.441 363.699 190.338C364.532 191.642 365.826 191.921 366.993 192.544C367.975 193.068 369.456 192.805 370.499 192.767C373.684 192.652 376.744 191.875 379.98 191.875C383.218 191.875 385.661 192.187 388.406 194.453C389.806 195.608 391.139 198.048 392.629 199.429C393.135 198.897 393.645 198.353 394.361 198.593C394.775 198.732 394.823 200.616 393.96 200.304C393.5 200.137 393.058 199.827 392.629 199.429C392.383 199.687 392.137 199.943 391.869 200.105C388.735 202.003 384.605 201.246 381.226 201.246H372.399C370.34 201.246 368.519 200.443 366.529 200.353C365.732 200.317 365.186 199.312 364.67 198.717C363.077 196.877 361.391 195.426 359.518 194.007C357.128 192.196 356.132 191.653 353.331 192.098C347.926 192.955 342.156 195.965 337.429 199.238C334.301 201.403 329.45 204.878 333.459 208.584C335.552 210.518 342.895 217.831 336.035 216.765C334.662 216.552 331.844 215.214 334.515 216.864C336.28 217.955 339.165 219.3 339.435 221.996C339.867 226.299 336.398 229.359 332.931 229.359C329.058 229.359 326.557 228.44 323.492 225.541C321.092 223.271 319.811 221.581 316.565 222.417C310.061 224.094 304.618 229.195 303.642 237.094C303.178 240.842 302.791 246.371 298.764 244.952C294.826 243.566 291.524 240.801 287.297 240.267C283.552 239.794 279.697 240.069 275.936 240.069C274.621 240.069 272.877 239.73 271.67 240.54C268.951 242.364 276.678 250.099 276.274 252.712C275.77 255.965 269.067 254.795 267.236 254.795C263.804 254.795 260.894 254.67 257.733 253.01C254.601 251.365 250.703 251.552 247.428 250.134C243.239 248.32 238.987 245.491 235.729 241.878C232.829 238.663 230.959 236.893 226.733 236.945C223.636 236.983 218.313 237.583 216.322 240.738C215.107 242.664 215.16 244.02 215.16 246.316C215.16 248.303 214.237 249.482 212.626 249.44C208.901 249.342 205.227 248.547 201.434 248.547C198.182 248.547 194.942 248.711 191.699 248.993C191.268 249.031 188.579 248.98 188.342 249.539C188.171 249.94 192.365 253.217 192.65 253.753C193.205 254.802 193.295 256.897 193.072 258.141C192.562 260.984 184.242 259.726 182.429 259.703C179.275 259.663 175.745 258.282 172.799 257.001C168.006 254.917 166.526 248.759 161.607 247.109C157.041 245.578 152.106 245.201 147.374 245.448C146.5 245.494 142.681 245.622 143.869 247.754C144.787 249.402 146.048 250.945 147.121 252.464C148.45 254.346 149.309 255.093 146.171 255.216C139.959 255.459 132.304 255.996 126.468 253.01C125.074 252.296 125.074 251.674 125.074 250.183L125.074 250.109C125.074 246.998 118.05 248.101 116.374 248.101C112.42 248.101 108.267 247.649 104.358 248.374C100.177 249.149 96.4155 249.886 92.1738 249.886C90.7152 249.886 81.5636 251.1 83.4735 246.936C85.1049 243.379 84.377 241.786 84.0014 238.259C83.9091 237.392 83.1317 235.415 83.8536 234.689C84.8492 233.687 86.2876 231.531 86.5988 230.103C87.015 228.193 86.1277 227.819 84.6983 227.128C80.6269 225.16 75.8924 224.579 72.3236 221.227C69.7344 218.796 70.7187 213.291 70.7187 209.724C70.7187 208.053 70.7009 207.226 69.9373 205.882C68.8065 203.89 65.7484 202.754 63.9612 201.94Z" fill="#3A4F30"/>
<path d="M108.603 260.536C115.568 266.814 138.716 263.014 146.789 264.056C151.755 264.056 154.809 266.017 158.932 268.377C162.456 270.395 166.926 270.057 171.234 269.818C174.069 269.66 175.384 264.056 180.581 264.056H192.804H212.616C219.958 264.056 221.524 260.13 224.759 253.974C227.97 247.862 232.212 252.268 235.224 254.614C245.592 262.691 255.282 269.818 268.776 269.818C279.086 269.818 280.52 266.638 280.52 256.855C280.52 252.731 279.805 244.67 286.591 248.853C294.107 253.486 298.195 255.415 307.042 255.415C310.015 255.415 327.862 252.583 321.342 246.053C317.847 242.551 313.966 241.268 312.475 235.891C311.807 233.482 312.316 229.112 315.031 232.69C319.896 239.102 325.063 242.594 333.245 240.372C339.673 238.626 354.131 238.722 352.338 228.849C350.97 221.314 345.155 215.107 348.903 206.525C352.189 199.002 356.743 208.097 358.809 211.086C363.652 218.092 377.817 219.164 385.012 223.968C391.682 228.422 409.053 239.593 412.493 225.809C415.574 213.467 403.744 206.008 400.191 196.043C398.48 191.245 401.309 186.635 401.309 181.96C401.309 177.048 400.859 174.113 403.546 170.198C414.588 154.111 394.205 140.467 382.616 131.55C378.725 128.557 359.919 119.827 369.674 113.547C374.659 110.337 375.836 105.523 370.473 102.104C362.425 96.9746 341.548 94.5085 346.986 79.3797C348.956 73.8999 350.98 72.2516 350.98 65.857C350.98 60.1469 347.589 55.2149 341.634 55.2149C336.304 55.2149 330.099 58.6444 324.458 59.2157C317.177 59.9532 309.72 59.5358 302.409 59.5358C296.662 59.5358 287.026 60.5849 283.396 55.535C278.975 49.3847 278.373 43.5645 272.611 37.2914C267.027 31.2116 258.444 23.3717 250.003 26.0892C244.168 27.9678 238.371 27.8495 232.348 27.8495C229.576 27.8495 230.233 25.5346 229.392 23.3686C227.173 17.6538 223.269 12.307 218.528 8.40565C203.581 -3.89166 182.923 2.5598 175.548 18.8877C172.111 26.4985 169.284 29.2898 161.169 29.2898C158.676 29.2898 155.699 28.8269 153.26 29.3698C150.352 30.0171 150.391 34.4313 147.428 34.9709C135.703 37.1062 120.191 30.8074 109.402 36.8113C104.415 39.5861 104.489 43.6011 102.531 48.0135C101.192 51.0325 103.928 64.0856 99.9751 65.2169C94.7517 66.7117 88.3275 64.5497 82.9591 65.3769C71.5618 67.1332 78.7993 84.4359 68.0202 84.0206C64.732 83.894 63.6738 80.1858 60.4309 79.7798C57.7283 79.4414 53.8584 79.1801 51.164 79.7798C45.4313 81.0558 44.6932 87.1562 44.6932 91.9422C44.6932 99.0847 41.7658 101.304 34.6274 101.304C31.5562 101.304 29.3358 99.6328 26.5588 98.4235C21.902 96.3955 16.8237 96.9832 11.8596 96.9832C-3.65266 96.9832 2.10755 111.966 9.06353 119.708C12.666 123.717 19.443 132.506 20.1678 137.951C21.389 147.125 14.3679 139.4 11.7797 145.233C8.80377 151.939 12.2819 166.485 18.8098 170.118C25.1251 173.632 41.0132 178.743 38.8614 188.441C37.7049 193.654 26.336 187.102 29.5945 194.283C32.1133 199.833 35.3031 205.267 40.3793 209.005C46.9189 213.822 64.2818 214.293 64.8247 225.169C65.1686 232.058 63.8029 242.053 68.5794 247.573C73.5913 253.365 84.246 256.598 91.3473 252.534C94.58 250.684 99.4212 247.731 103.65 249.974C104.829 250.599 107.096 254.195 107.644 255.415C108.259 256.782 107.43 259.479 108.603 260.536Z" stroke="#3D5232" stroke-width="3" stroke-linecap="round" stroke-linejoin="round"/>
</svg>
